<svg version="1.1" xmlns="http://www.w3.org/2000/svg" viewBox="0 0 387.4024605355574 239.29674487894727" width="774.8049210711148" height="478.59348975789453">
  <!-- svg-source:excalidraw -->
  
  <defs>
    <style class="style-fonts">
      
    </style>
    
  </defs>
  <g stroke-linecap="round" transform="translate(90.07121495438747 27.455370722095154) rotate(0 20.39453125 18.962890625)"><path d="M40.79 18.96 C40.79 20.06, 40.68 21.17, 40.48 22.26 C40.27 23.34, 39.96 24.42, 39.56 25.45 C39.16 26.48, 38.65 27.49, 38.06 28.44 C37.47 29.39, 36.78 30.31, 36.02 31.15 C35.26 31.99, 34.41 32.78, 33.5 33.49 C32.6 34.19, 31.61 34.84, 30.59 35.39 C29.57 35.93, 28.48 36.41, 27.37 36.78 C26.26 37.16, 25.1 37.45, 23.94 37.64 C22.77 37.83, 21.58 37.93, 20.39 37.93 C19.21 37.93, 18.02 37.83, 16.85 37.64 C15.69 37.45, 14.53 37.16, 13.42 36.78 C12.31 36.41, 11.22 35.93, 10.2 35.39 C9.17 34.84, 8.19 34.19, 7.29 33.49 C6.38 32.78, 5.53 31.99, 4.77 31.15 C4.01 30.31, 3.32 29.39, 2.73 28.44 C2.14 27.49, 1.63 26.48, 1.23 25.45 C0.83 24.42, 0.51 23.34, 0.31 22.26 C0.1 21.17, 0 20.06, 0 18.96 C0 17.87, 0.1 16.75, 0.31 15.67 C0.51 14.59, 0.83 13.51, 1.23 12.48 C1.63 11.45, 2.14 10.43, 2.73 9.48 C3.32 8.53, 4.01 7.61, 4.77 6.77 C5.53 5.93, 6.38 5.14, 7.29 4.44 C8.19 3.73, 9.17 3.09, 10.2 2.54 C11.22 1.99, 12.31 1.52, 13.42 1.14 C14.53 0.77, 15.69 0.48, 16.85 0.29 C18.02 0.1, 19.21 0, 20.39 0 C21.58 0, 22.77 0.1, 23.94 0.29 C25.1 0.48, 26.26 0.77, 27.37 1.14 C28.48 1.52, 29.57 1.99, 30.59 2.54 C31.61 3.09, 32.6 3.73, 33.5 4.44 C34.41 5.14, 35.26 5.93, 36.02 6.77 C36.78 7.61, 37.47 8.53, 38.06 9.48 C38.65 10.43, 39.16 11.45, 39.56 12.48 C39.96 13.51, 40.27 14.59, 40.48 15.67 C40.68 16.75, 40.74 18.41, 40.79 18.96 C40.84 19.51, 40.84 18.41, 40.79 18.96" stroke="#1e1e1e" stroke-width="1" fill="none"></path></g><g stroke-linecap="round" transform="translate(90.07121420438745 78.78544934709515) rotate(0 20.39453125 18.962890625)"><path d="M40.79 18.96 C40.79 20.06, 40.68 21.17, 40.48 22.26 C40.27 23.34, 39.96 24.42, 39.56 25.45 C39.16 26.48, 38.65 27.49, 38.06 28.44 C37.47 29.39, 36.78 30.31, 36.02 31.15 C35.26 31.99, 34.41 32.78, 33.5 33.49 C32.6 34.19, 31.61 34.84, 30.59 35.39 C29.57 35.93, 28.48 36.41, 27.37 36.78 C26.26 37.16, 25.1 37.45, 23.94 37.64 C22.77 37.83, 21.58 37.93, 20.39 37.93 C19.21 37.93, 18.02 37.83, 16.85 37.64 C15.69 37.45, 14.53 37.16, 13.42 36.78 C12.31 36.41, 11.22 35.93, 10.2 35.39 C9.17 34.84, 8.19 34.19, 7.29 33.49 C6.38 32.78, 5.53 31.99, 4.77 31.15 C4.01 30.31, 3.32 29.39, 2.73 28.44 C2.14 27.49, 1.63 26.48, 1.23 25.45 C0.83 24.42, 0.51 23.34, 0.31 22.26 C0.1 21.17, 0 20.06, 0 18.96 C0 17.87, 0.1 16.75, 0.31 15.67 C0.51 14.59, 0.83 13.51, 1.23 12.48 C1.63 11.45, 2.14 10.43, 2.73 9.48 C3.32 8.53, 4.01 7.61, 4.77 6.77 C5.53 5.93, 6.38 5.14, 7.29 4.44 C8.19 3.73, 9.17 3.09, 10.2 2.54 C11.22 1.99, 12.31 1.52, 13.42 1.14 C14.53 0.77, 15.69 0.48, 16.85 0.29 C18.02 0.1, 19.21 0, 20.39 0 C21.58 0, 22.77 0.1, 23.94 0.29 C25.1 0.48, 26.26 0.77, 27.37 1.14 C28.48 1.52, 29.57 1.99, 30.59 2.54 C31.61 3.09, 32.6 3.73, 33.5 4.44 C34.41 5.14, 35.26 5.93, 36.02 6.77 C36.78 7.61, 37.47 8.53, 38.06 9.48 C38.65 10.43, 39.16 11.45, 39.56 12.48 C39.96 13.51, 40.27 14.59, 40.48 15.67 C40.68 16.75, 40.74 18.41, 40.79 18.96 C40.84 19.51, 40.84 18.41, 40.79 18.96" stroke="#1e1e1e" stroke-width="1" fill="none"></path></g><g stroke-linecap="round" transform="translate(90.07121370438745 130.11552684709505) rotate(0 20.39453125 18.962890625)"><path d="M40.79 18.96 C40.79 20.06, 40.68 21.17, 40.48 22.26 C40.27 23.34, 39.96 24.42, 39.56 25.45 C39.16 26.48, 38.65 27.49, 38.06 28.44 C37.47 29.39, 36.78 30.31, 36.02 31.15 C35.26 31.99, 34.41 32.78, 33.5 33.49 C32.6 34.19, 31.61 34.84, 30.59 35.39 C29.57 35.93, 28.48 36.41, 27.37 36.78 C26.26 37.16, 25.1 37.45, 23.94 37.64 C22.77 37.83, 21.58 37.93, 20.39 37.93 C19.21 37.93, 18.02 37.83, 16.85 37.64 C15.69 37.45, 14.53 37.16, 13.42 36.78 C12.31 36.41, 11.22 35.93, 10.2 35.39 C9.17 34.84, 8.19 34.19, 7.29 33.49 C6.38 32.78, 5.53 31.99, 4.77 31.15 C4.01 30.31, 3.32 29.39, 2.73 28.44 C2.14 27.49, 1.63 26.48, 1.23 25.45 C0.83 24.42, 0.51 23.34, 0.31 22.26 C0.1 21.17, 0 20.06, 0 18.96 C0 17.87, 0.1 16.75, 0.31 15.67 C0.51 14.59, 0.83 13.51, 1.23 12.48 C1.63 11.45, 2.14 10.43, 2.73 9.48 C3.32 8.53, 4.01 7.61, 4.77 6.77 C5.53 5.93, 6.38 5.14, 7.29 4.44 C8.19 3.73, 9.17 3.09, 10.2 2.54 C11.22 1.99, 12.31 1.52, 13.42 1.14 C14.53 0.77, 15.69 0.48, 16.85 0.29 C18.02 0.1, 19.21 0, 20.39 0 C21.58 0, 22.77 0.1, 23.94 0.29 C25.1 0.48, 26.26 0.77, 27.37 1.14 C28.48 1.52, 29.57 1.99, 30.59 2.54 C31.61 3.09, 32.6 3.73, 33.5 4.44 C34.41 5.14, 35.26 5.93, 36.02 6.77 C36.78 7.61, 37.47 8.53, 38.06 9.48 C38.65 10.43, 39.16 11.45, 39.56 12.48 C39.96 13.51, 40.27 14.59, 40.48 15.67 C40.68 16.75, 40.74 18.41, 40.79 18.96 C40.84 19.51, 40.84 18.41, 40.79 18.96" stroke="#1e1e1e" stroke-width="1" fill="none"></path></g><g stroke-linecap="round" transform="translate(90.07121570438755 181.44560509709527) rotate(0 20.39453125 18.962890625)"><path d="M40.79 18.96 C40.79 20.06, 40.68 21.17, 40.48 22.26 C40.27 23.34, 39.96 24.42, 39.56 25.45 C39.16 26.48, 38.65 27.49, 38.06 28.44 C37.47 29.39, 36.78 30.31, 36.02 31.15 C35.26 31.99, 34.41 32.78, 33.5 33.49 C32.6 34.19, 31.61 34.84, 30.59 35.39 C29.57 35.93, 28.48 36.41, 27.37 36.78 C26.26 37.16, 25.1 37.45, 23.94 37.64 C22.77 37.83, 21.58 37.93, 20.39 37.93 C19.21 37.93, 18.02 37.83, 16.85 37.64 C15.69 37.45, 14.53 37.16, 13.42 36.78 C12.31 36.41, 11.22 35.93, 10.2 35.39 C9.17 34.84, 8.19 34.19, 7.29 33.49 C6.38 32.78, 5.53 31.99, 4.77 31.15 C4.01 30.31, 3.32 29.39, 2.73 28.44 C2.14 27.49, 1.63 26.48, 1.23 25.45 C0.83 24.42, 0.51 23.34, 0.31 22.26 C0.1 21.17, 0 20.06, 0 18.96 C0 17.87, 0.1 16.75, 0.31 15.67 C0.51 14.59, 0.83 13.51, 1.23 12.48 C1.63 11.45, 2.14 10.43, 2.73 9.48 C3.32 8.53, 4.01 7.61, 4.77 6.77 C5.53 5.93, 6.38 5.14, 7.29 4.44 C8.19 3.73, 9.17 3.09, 10.2 2.54 C11.22 1.99, 12.31 1.52, 13.42 1.14 C14.53 0.77, 15.69 0.48, 16.85 0.29 C18.02 0.1, 19.21 0, 20.39 0 C21.58 0, 22.77 0.1, 23.94 0.29 C25.1 0.48, 26.26 0.77, 27.37 1.14 C28.48 1.52, 29.57 1.99, 30.59 2.54 C31.61 3.09, 32.6 3.73, 33.5 4.44 C34.41 5.14, 35.26 5.93, 36.02 6.77 C36.78 7.61, 37.47 8.53, 38.06 9.48 C38.65 10.43, 39.16 11.45, 39.56 12.48 C39.96 13.51, 40.27 14.59, 40.48 15.67 C40.68 16.75, 40.74 18.41, 40.79 18.96 C40.84 19.51, 40.84 18.41, 40.79 18.96" stroke="#1e1e1e" stroke-width="1" fill="none"></path></g><g stroke-linecap="round" transform="translate(168.8876222043874 110.92216684709518) rotate(0 20.39453125 18.962890625)"><path d="M40.79 18.96 C40.79 20.06, 40.68 21.17, 40.48 22.26 C40.27 23.34, 39.96 24.42, 39.56 25.45 C39.16 26.48, 38.65 27.49, 38.06 28.44 C37.47 29.39, 36.78 30.31, 36.02 31.15 C35.26 31.99, 34.41 32.78, 33.5 33.49 C32.6 34.19, 31.61 34.84, 30.59 35.39 C29.57 35.93, 28.48 36.41, 27.37 36.78 C26.26 37.16, 25.1 37.45, 23.94 37.64 C22.77 37.83, 21.58 37.93, 20.39 37.93 C19.21 37.93, 18.02 37.83, 16.85 37.64 C15.69 37.45, 14.53 37.16, 13.42 36.78 C12.31 36.41, 11.22 35.93, 10.2 35.39 C9.17 34.84, 8.19 34.19, 7.29 33.49 C6.38 32.78, 5.53 31.99, 4.77 31.15 C4.01 30.31, 3.32 29.39, 2.73 28.44 C2.14 27.49, 1.63 26.48, 1.23 25.45 C0.83 24.42, 0.51 23.34, 0.31 22.26 C0.1 21.17, 0 20.06, 0 18.96 C0 17.87, 0.1 16.75, 0.31 15.67 C0.51 14.59, 0.83 13.51, 1.23 12.48 C1.63 11.45, 2.14 10.43, 2.73 9.48 C3.32 8.53, 4.01 7.61, 4.77 6.77 C5.53 5.93, 6.38 5.14, 7.29 4.44 C8.19 3.73, 9.17 3.09, 10.2 2.54 C11.22 1.99, 12.31 1.52, 13.42 1.14 C14.53 0.77, 15.69 0.48, 16.85 0.29 C18.02 0.1, 19.21 0, 20.39 0 C21.58 0, 22.77 0.1, 23.94 0.29 C25.1 0.48, 26.26 0.77, 27.37 1.14 C28.48 1.52, 29.57 1.99, 30.59 2.54 C31.61 3.09, 32.6 3.73, 33.5 4.44 C34.41 5.14, 35.26 5.93, 36.02 6.77 C36.78 7.61, 37.47 8.53, 38.06 9.48 C38.65 10.43, 39.16 11.45, 39.56 12.48 C39.96 13.51, 40.27 14.59, 40.48 15.67 C40.68 16.75, 40.74 18.41, 40.79 18.96 C40.84 19.51, 40.84 18.41, 40.79 18.96" stroke="#1e1e1e" stroke-width="1" fill="none"></path></g><g stroke-linecap="round" transform="translate(168.88762120438747 162.4827140970952) rotate(0 20.39453125 18.962890625)"><path d="M40.79 18.96 C40.79 20.06, 40.68 21.17, 40.48 22.26 C40.27 23.34, 39.96 24.42, 39.56 25.45 C39.16 26.48, 38.65 27.49, 38.06 28.44 C37.47 29.39, 36.78 30.31, 36.02 31.15 C35.26 31.99, 34.41 32.78, 33.5 33.49 C32.6 34.19, 31.61 34.84, 30.59 35.39 C29.57 35.93, 28.48 36.41, 27.37 36.78 C26.26 37.16, 25.1 37.45, 23.94 37.64 C22.77 37.83, 21.58 37.93, 20.39 37.93 C19.21 37.93, 18.02 37.83, 16.85 37.64 C15.69 37.45, 14.53 37.16, 13.42 36.78 C12.31 36.41, 11.22 35.93, 10.2 35.39 C9.17 34.84, 8.19 34.19, 7.29 33.49 C6.38 32.78, 5.53 31.99, 4.77 31.15 C4.01 30.31, 3.32 29.39, 2.73 28.44 C2.14 27.49, 1.63 26.48, 1.23 25.45 C0.83 24.42, 0.51 23.34, 0.31 22.26 C0.1 21.17, 0 20.06, 0 18.96 C0 17.87, 0.1 16.75, 0.31 15.67 C0.51 14.59, 0.83 13.51, 1.23 12.48 C1.63 11.45, 2.14 10.43, 2.73 9.48 C3.32 8.53, 4.01 7.61, 4.77 6.77 C5.53 5.93, 6.38 5.14, 7.29 4.44 C8.19 3.73, 9.17 3.09, 10.2 2.54 C11.22 1.99, 12.31 1.52, 13.42 1.14 C14.53 0.77, 15.69 0.48, 16.85 0.29 C18.02 0.1, 19.21 0, 20.39 0 C21.58 0, 22.77 0.1, 23.94 0.29 C25.1 0.48, 26.26 0.77, 27.37 1.14 C28.48 1.52, 29.57 1.99, 30.59 2.54 C31.61 3.09, 32.6 3.73, 33.5 4.44 C34.41 5.14, 35.26 5.93, 36.02 6.77 C36.78 7.61, 37.47 8.53, 38.06 9.48 C38.65 10.43, 39.16 11.45, 39.56 12.48 C39.96 13.51, 40.27 14.59, 40.48 15.67 C40.68 16.75, 40.74 18.41, 40.79 18.96 C40.84 19.51, 40.84 18.41, 40.79 18.96" stroke="#1e1e1e" stroke-width="1" fill="none"></path></g><g stroke-linecap="round" transform="translate(168.88762220438747 59.592089347095225) rotate(0 20.39453125 18.962890625)"><path d="M40.79 18.96 C40.79 20.06, 40.68 21.17, 40.48 22.26 C40.27 23.34, 39.96 24.42, 39.56 25.45 C39.16 26.48, 38.65 27.49, 38.06 28.44 C37.47 29.39, 36.78 30.31, 36.02 31.15 C35.26 31.99, 34.41 32.78, 33.5 33.49 C32.6 34.19, 31.61 34.84, 30.59 35.39 C29.57 35.93, 28.48 36.41, 27.37 36.78 C26.26 37.16, 25.1 37.45, 23.94 37.64 C22.77 37.83, 21.58 37.93, 20.39 37.93 C19.21 37.93, 18.02 37.83, 16.85 37.64 C15.69 37.45, 14.53 37.16, 13.42 36.78 C12.31 36.41, 11.22 35.93, 10.2 35.39 C9.17 34.84, 8.19 34.19, 7.29 33.49 C6.38 32.78, 5.53 31.99, 4.77 31.15 C4.01 30.31, 3.32 29.39, 2.73 28.44 C2.14 27.49, 1.63 26.48, 1.23 25.45 C0.83 24.42, 0.51 23.34, 0.31 22.26 C0.1 21.17, 0 20.06, 0 18.96 C0 17.87, 0.1 16.75, 0.31 15.67 C0.51 14.59, 0.83 13.51, 1.23 12.48 C1.63 11.45, 2.14 10.43, 2.73 9.48 C3.32 8.53, 4.01 7.61, 4.77 6.77 C5.53 5.93, 6.38 5.14, 7.29 4.44 C8.19 3.73, 9.17 3.09, 10.2 2.54 C11.22 1.99, 12.31 1.52, 13.42 1.14 C14.53 0.77, 15.69 0.48, 16.85 0.29 C18.02 0.1, 19.21 0, 20.39 0 C21.58 0, 22.77 0.1, 23.94 0.29 C25.1 0.48, 26.26 0.77, 27.37 1.14 C28.48 1.52, 29.57 1.99, 30.59 2.54 C31.61 3.09, 32.6 3.73, 33.5 4.44 C34.41 5.14, 35.26 5.93, 36.02 6.77 C36.78 7.61, 37.47 8.53, 38.06 9.48 C38.65 10.43, 39.16 11.45, 39.56 12.48 C39.96 13.51, 40.27 14.59, 40.48 15.67 C40.68 16.75, 40.74 18.41, 40.79 18.96 C40.84 19.51, 40.84 18.41, 40.79 18.96" stroke="#1e1e1e" stroke-width="1" fill="none"></path></g><g stroke-linecap="round" transform="translate(247.7040284543874 27.45537115959513) rotate(0 20.39453124999997 18.962890625)"><path d="M40.79 18.96 C40.79 20.06, 40.68 21.17, 40.48 22.26 C40.27 23.34, 39.96 24.42, 39.56 25.45 C39.16 26.48, 38.65 27.49, 38.06 28.44 C37.47 29.39, 36.78 30.31, 36.02 31.15 C35.26 31.99, 34.41 32.78, 33.5 33.49 C32.6 34.19, 31.61 34.84, 30.59 35.39 C29.57 35.93, 28.48 36.41, 27.37 36.78 C26.26 37.16, 25.1 37.45, 23.94 37.64 C22.77 37.83, 21.58 37.93, 20.39 37.93 C19.21 37.93, 18.02 37.83, 16.85 37.64 C15.69 37.45, 14.53 37.16, 13.42 36.78 C12.31 36.41, 11.22 35.93, 10.2 35.39 C9.17 34.84, 8.19 34.19, 7.29 33.49 C6.38 32.78, 5.53 31.99, 4.77 31.15 C4.01 30.31, 3.32 29.39, 2.73 28.44 C2.14 27.49, 1.63 26.48, 1.23 25.45 C0.83 24.42, 0.51 23.34, 0.31 22.26 C0.1 21.17, 0 20.06, 0 18.96 C0 17.87, 0.1 16.75, 0.31 15.67 C0.51 14.59, 0.83 13.51, 1.23 12.48 C1.63 11.45, 2.14 10.43, 2.73 9.48 C3.32 8.53, 4.01 7.61, 4.77 6.77 C5.53 5.93, 6.38 5.14, 7.29 4.44 C8.19 3.73, 9.17 3.09, 10.2 2.54 C11.22 1.99, 12.31 1.52, 13.42 1.14 C14.53 0.77, 15.69 0.48, 16.85 0.29 C18.02 0.1, 19.21 0, 20.39 0 C21.58 0, 22.77 0.1, 23.94 0.29 C25.1 0.48, 26.26 0.77, 27.37 1.14 C28.48 1.52, 29.57 1.99, 30.59 2.54 C31.61 3.09, 32.6 3.73, 33.5 4.44 C34.41 5.14, 35.26 5.93, 36.02 6.77 C36.78 7.61, 37.47 8.53, 38.06 9.48 C38.65 10.43, 39.16 11.45, 39.56 12.48 C39.96 13.51, 40.27 14.59, 40.48 15.67 C40.68 16.75, 40.74 18.41, 40.79 18.96 C40.84 19.51, 40.84 18.41, 40.79 18.96" stroke="#1e1e1e" stroke-width="1" fill="none"></path></g><g stroke-linecap="round" transform="translate(247.70402770438739 78.78544978459507) rotate(0 20.39453124999997 18.962890625)"><path d="M40.79 18.96 C40.79 20.06, 40.68 21.17, 40.48 22.26 C40.27 23.34, 39.96 24.42, 39.56 25.45 C39.16 26.48, 38.65 27.49, 38.06 28.44 C37.47 29.39, 36.78 30.31, 36.02 31.15 C35.26 31.99, 34.41 32.78, 33.5 33.49 C32.6 34.19, 31.61 34.84, 30.59 35.39 C29.57 35.93, 28.48 36.41, 27.37 36.78 C26.26 37.16, 25.1 37.45, 23.94 37.64 C22.77 37.83, 21.58 37.93, 20.39 37.93 C19.21 37.93, 18.02 37.83, 16.85 37.64 C15.69 37.45, 14.53 37.16, 13.42 36.78 C12.31 36.41, 11.22 35.93, 10.2 35.39 C9.17 34.84, 8.19 34.19, 7.29 33.49 C6.38 32.78, 5.53 31.99, 4.77 31.15 C4.01 30.31, 3.32 29.39, 2.73 28.44 C2.14 27.49, 1.63 26.48, 1.23 25.45 C0.83 24.42, 0.51 23.34, 0.31 22.26 C0.1 21.17, 0 20.06, 0 18.96 C0 17.87, 0.1 16.75, 0.31 15.67 C0.51 14.59, 0.83 13.51, 1.23 12.48 C1.63 11.45, 2.14 10.43, 2.73 9.48 C3.32 8.53, 4.01 7.61, 4.77 6.77 C5.53 5.93, 6.38 5.14, 7.29 4.44 C8.19 3.73, 9.17 3.09, 10.2 2.54 C11.22 1.99, 12.31 1.52, 13.42 1.14 C14.53 0.77, 15.69 0.48, 16.85 0.29 C18.02 0.1, 19.21 0, 20.39 0 C21.58 0, 22.77 0.1, 23.94 0.29 C25.1 0.48, 26.26 0.77, 27.37 1.14 C28.48 1.52, 29.57 1.99, 30.59 2.54 C31.61 3.09, 32.6 3.73, 33.5 4.44 C34.41 5.14, 35.26 5.93, 36.02 6.77 C36.78 7.61, 37.47 8.53, 38.06 9.48 C38.65 10.43, 39.16 11.45, 39.56 12.48 C39.96 13.51, 40.27 14.59, 40.48 15.67 C40.68 16.75, 40.74 18.41, 40.79 18.96 C40.84 19.51, 40.84 18.41, 40.79 18.96" stroke="#1e1e1e" stroke-width="1" fill="none"></path></g><g stroke-linecap="round" transform="translate(247.70402720438744 130.11552728459498) rotate(0 20.39453124999997 18.962890625)"><path d="M40.79 18.96 C40.79 20.06, 40.68 21.17, 40.48 22.26 C40.27 23.34, 39.96 24.42, 39.56 25.45 C39.16 26.48, 38.65 27.49, 38.06 28.44 C37.47 29.39, 36.78 30.31, 36.02 31.15 C35.26 31.99, 34.41 32.78, 33.5 33.49 C32.6 34.19, 31.61 34.84, 30.59 35.39 C29.57 35.93, 28.48 36.41, 27.37 36.78 C26.26 37.16, 25.1 37.45, 23.94 37.64 C22.77 37.83, 21.58 37.93, 20.39 37.93 C19.21 37.93, 18.02 37.83, 16.85 37.64 C15.69 37.45, 14.53 37.16, 13.42 36.78 C12.31 36.41, 11.22 35.93, 10.2 35.39 C9.17 34.84, 8.19 34.19, 7.29 33.49 C6.38 32.78, 5.53 31.99, 4.77 31.15 C4.01 30.31, 3.32 29.39, 2.73 28.44 C2.14 27.49, 1.63 26.48, 1.23 25.45 C0.83 24.42, 0.51 23.34, 0.31 22.26 C0.1 21.17, 0 20.06, 0 18.96 C0 17.87, 0.1 16.75, 0.31 15.67 C0.51 14.59, 0.83 13.51, 1.23 12.48 C1.63 11.45, 2.14 10.43, 2.73 9.48 C3.32 8.53, 4.01 7.61, 4.77 6.77 C5.53 5.93, 6.38 5.14, 7.29 4.44 C8.19 3.73, 9.17 3.09, 10.2 2.54 C11.22 1.99, 12.31 1.52, 13.42 1.14 C14.53 0.77, 15.69 0.48, 16.85 0.29 C18.02 0.1, 19.21 0, 20.39 0 C21.58 0, 22.77 0.1, 23.94 0.29 C25.1 0.48, 26.26 0.77, 27.37 1.14 C28.48 1.52, 29.57 1.99, 30.59 2.54 C31.61 3.09, 32.6 3.73, 33.5 4.44 C34.41 5.14, 35.26 5.93, 36.02 6.77 C36.78 7.61, 37.47 8.53, 38.06 9.48 C38.65 10.43, 39.16 11.45, 39.56 12.48 C39.96 13.51, 40.27 14.59, 40.48 15.67 C40.68 16.75, 40.74 18.41, 40.79 18.96 C40.84 19.51, 40.84 18.41, 40.79 18.96" stroke="#1e1e1e" stroke-width="1" fill="none"></path></g><g stroke-linecap="round" transform="translate(247.70402920438755 181.44560553459513) rotate(0 20.39453125000003 18.962890625)"><path d="M40.79 18.96 C40.79 20.06, 40.68 21.17, 40.48 22.26 C40.27 23.34, 39.96 24.42, 39.56 25.45 C39.16 26.48, 38.65 27.49, 38.06 28.44 C37.47 29.39, 36.78 30.31, 36.02 31.15 C35.26 31.99, 34.41 32.78, 33.5 33.49 C32.6 34.19, 31.61 34.84, 30.59 35.39 C29.57 35.93, 28.48 36.41, 27.37 36.78 C26.26 37.16, 25.1 37.45, 23.94 37.64 C22.77 37.83, 21.58 37.93, 20.39 37.93 C19.21 37.93, 18.02 37.83, 16.85 37.64 C15.69 37.45, 14.53 37.16, 13.42 36.78 C12.31 36.41, 11.22 35.93, 10.2 35.39 C9.17 34.84, 8.19 34.19, 7.29 33.49 C6.38 32.78, 5.53 31.99, 4.77 31.15 C4.01 30.31, 3.32 29.39, 2.73 28.44 C2.14 27.49, 1.63 26.48, 1.23 25.45 C0.83 24.42, 0.51 23.34, 0.31 22.26 C0.1 21.17, 0 20.06, 0 18.96 C0 17.87, 0.1 16.75, 0.31 15.67 C0.51 14.59, 0.83 13.51, 1.23 12.48 C1.63 11.45, 2.14 10.43, 2.73 9.48 C3.32 8.53, 4.01 7.61, 4.77 6.77 C5.53 5.93, 6.38 5.14, 7.29 4.44 C8.19 3.73, 9.17 3.09, 10.2 2.54 C11.22 1.99, 12.31 1.52, 13.42 1.14 C14.53 0.77, 15.69 0.48, 16.85 0.29 C18.02 0.1, 19.21 0, 20.39 0 C21.58 0, 22.77 0.1, 23.94 0.29 C25.1 0.48, 26.26 0.77, 27.37 1.14 C28.48 1.52, 29.57 1.99, 30.59 2.54 C31.61 3.09, 32.6 3.73, 33.5 4.44 C34.41 5.14, 35.26 5.93, 36.02 6.77 C36.78 7.61, 37.47 8.53, 38.06 9.48 C38.65 10.43, 39.16 11.45, 39.56 12.48 C39.96 13.51, 40.27 14.59, 40.48 15.67 C40.68 16.75, 40.74 18.41, 40.79 18.96 C40.84 19.51, 40.84 18.41, 40.79 18.96" stroke="#1e1e1e" stroke-width="1" fill="none"></path></g><g stroke-linecap="round" transform="translate(20.938402704387414 130.1155280970952) rotate(0 20.394531250000014 18.962890625)"><path d="M40.79 18.96 C40.79 20.06, 40.68 21.17, 40.48 22.26 C40.27 23.34, 39.96 24.42, 39.56 25.45 C39.16 26.48, 38.65 27.49, 38.06 28.44 C37.47 29.39, 36.78 30.31, 36.02 31.15 C35.26 31.99, 34.41 32.78, 33.5 33.49 C32.6 34.19, 31.61 34.84, 30.59 35.39 C29.57 35.93, 28.48 36.41, 27.37 36.78 C26.26 37.16, 25.1 37.45, 23.94 37.64 C22.77 37.83, 21.58 37.93, 20.39 37.93 C19.21 37.93, 18.02 37.83, 16.85 37.64 C15.69 37.45, 14.53 37.16, 13.42 36.78 C12.31 36.41, 11.22 35.93, 10.2 35.39 C9.17 34.84, 8.19 34.19, 7.29 33.49 C6.38 32.78, 5.53 31.99, 4.77 31.15 C4.01 30.31, 3.32 29.39, 2.73 28.44 C2.14 27.49, 1.63 26.48, 1.23 25.45 C0.83 24.42, 0.51 23.34, 0.31 22.26 C0.1 21.17, 0 20.06, 0 18.96 C0 17.87, 0.1 16.75, 0.31 15.67 C0.51 14.59, 0.83 13.51, 1.23 12.48 C1.63 11.45, 2.14 10.43, 2.73 9.48 C3.32 8.53, 4.01 7.61, 4.77 6.77 C5.53 5.93, 6.38 5.14, 7.29 4.44 C8.19 3.73, 9.17 3.09, 10.2 2.54 C11.22 1.99, 12.31 1.52, 13.42 1.14 C14.53 0.77, 15.69 0.48, 16.85 0.29 C18.02 0.1, 19.21 0, 20.39 0 C21.58 0, 22.77 0.1, 23.94 0.29 C25.1 0.48, 26.26 0.77, 27.37 1.14 C28.48 1.52, 29.57 1.99, 30.59 2.54 C31.61 3.09, 32.6 3.73, 33.5 4.44 C34.41 5.14, 35.26 5.93, 36.02 6.77 C36.78 7.61, 37.47 8.53, 38.06 9.48 C38.65 10.43, 39.16 11.45, 39.56 12.48 C39.96 13.51, 40.27 14.59, 40.48 15.67 C40.68 16.75, 40.74 18.41, 40.79 18.96 C40.84 19.51, 40.84 18.41, 40.79 18.96" stroke="#1e1e1e" stroke-width="1" fill="none"></path></g><g stroke-linecap="round" transform="translate(20.938402704387528 78.78545059709518) rotate(0 20.394531250000014 18.962890625)"><path d="M40.79 18.96 C40.79 20.06, 40.68 21.17, 40.48 22.26 C40.27 23.34, 39.96 24.42, 39.56 25.45 C39.16 26.48, 38.65 27.49, 38.06 28.44 C37.47 29.39, 36.78 30.31, 36.02 31.15 C35.26 31.99, 34.41 32.78, 33.5 33.49 C32.6 34.19, 31.61 34.84, 30.59 35.39 C29.57 35.93, 28.48 36.41, 27.37 36.78 C26.26 37.16, 25.1 37.45, 23.94 37.64 C22.77 37.83, 21.58 37.93, 20.39 37.93 C19.21 37.93, 18.02 37.83, 16.85 37.64 C15.69 37.45, 14.53 37.16, 13.42 36.78 C12.31 36.41, 11.22 35.93, 10.2 35.39 C9.17 34.84, 8.19 34.19, 7.29 33.49 C6.38 32.78, 5.53 31.99, 4.77 31.15 C4.01 30.31, 3.32 29.39, 2.73 28.44 C2.14 27.49, 1.63 26.48, 1.23 25.45 C0.83 24.42, 0.51 23.34, 0.31 22.26 C0.1 21.17, 0 20.06, 0 18.96 C0 17.87, 0.1 16.75, 0.31 15.67 C0.51 14.59, 0.83 13.51, 1.23 12.48 C1.63 11.45, 2.14 10.43, 2.73 9.48 C3.32 8.53, 4.01 7.61, 4.77 6.77 C5.53 5.93, 6.38 5.14, 7.29 4.44 C8.19 3.73, 9.17 3.09, 10.2 2.54 C11.22 1.99, 12.31 1.52, 13.42 1.14 C14.53 0.77, 15.69 0.48, 16.85 0.29 C18.02 0.1, 19.21 0, 20.39 0 C21.58 0, 22.77 0.1, 23.94 0.29 C25.1 0.48, 26.26 0.77, 27.37 1.14 C28.48 1.52, 29.57 1.99, 30.59 2.54 C31.61 3.09, 32.6 3.73, 33.5 4.44 C34.41 5.14, 35.26 5.93, 36.02 6.77 C36.78 7.61, 37.47 8.53, 38.06 9.48 C38.65 10.43, 39.16 11.45, 39.56 12.48 C39.96 13.51, 40.27 14.59, 40.48 15.67 C40.68 16.75, 40.74 18.41, 40.79 18.96 C40.84 19.51, 40.84 18.41, 40.79 18.96" stroke="#1e1e1e" stroke-width="1" fill="none"></path></g><g stroke-linecap="round" transform="translate(326.52043370438736 129.88505734709514) rotate(0 20.39453125 18.962890625)"><path d="M40.79 18.96 C40.79 20.06, 40.68 21.17, 40.48 22.26 C40.27 23.34, 39.96 24.42, 39.56 25.45 C39.16 26.48, 38.65 27.49, 38.06 28.44 C37.47 29.39, 36.78 30.31, 36.02 31.15 C35.26 31.99, 34.41 32.78, 33.5 33.49 C32.6 34.19, 31.61 34.84, 30.59 35.39 C29.57 35.93, 28.48 36.41, 27.37 36.78 C26.26 37.16, 25.1 37.45, 23.94 37.64 C22.77 37.83, 21.58 37.93, 20.39 37.93 C19.21 37.93, 18.02 37.83, 16.85 37.64 C15.69 37.45, 14.53 37.16, 13.42 36.78 C12.31 36.41, 11.22 35.93, 10.2 35.39 C9.17 34.84, 8.19 34.19, 7.29 33.49 C6.38 32.78, 5.53 31.99, 4.77 31.15 C4.01 30.31, 3.32 29.39, 2.73 28.44 C2.14 27.49, 1.63 26.48, 1.23 25.45 C0.83 24.42, 0.51 23.34, 0.31 22.26 C0.1 21.17, 0 20.06, 0 18.96 C0 17.87, 0.1 16.75, 0.31 15.67 C0.51 14.59, 0.83 13.51, 1.23 12.48 C1.63 11.45, 2.14 10.43, 2.73 9.48 C3.32 8.53, 4.01 7.61, 4.77 6.77 C5.53 5.93, 6.38 5.14, 7.29 4.44 C8.19 3.73, 9.17 3.09, 10.2 2.54 C11.22 1.99, 12.31 1.52, 13.42 1.14 C14.53 0.77, 15.69 0.48, 16.85 0.29 C18.02 0.1, 19.21 0, 20.39 0 C21.58 0, 22.77 0.1, 23.94 0.29 C25.1 0.48, 26.26 0.77, 27.37 1.14 C28.48 1.52, 29.57 1.99, 30.59 2.54 C31.61 3.09, 32.6 3.73, 33.5 4.44 C34.41 5.14, 35.26 5.93, 36.02 6.77 C36.78 7.61, 37.47 8.53, 38.06 9.48 C38.65 10.43, 39.16 11.45, 39.56 12.48 C39.96 13.51, 40.27 14.59, 40.48 15.67 C40.68 16.75, 40.74 18.41, 40.79 18.96 C40.84 19.51, 40.84 18.41, 40.79 18.96" stroke="#1e1e1e" stroke-width="1" fill="none"></path></g><g stroke-linecap="round" transform="translate(326.5204337043875 78.55497984709513) rotate(0 20.39453125 18.962890625)"><path d="M40.79 18.96 C40.79 20.06, 40.68 21.17, 40.48 22.26 C40.27 23.34, 39.96 24.42, 39.56 25.45 C39.16 26.48, 38.65 27.49, 38.06 28.44 C37.47 29.39, 36.78 30.31, 36.02 31.15 C35.26 31.99, 34.41 32.78, 33.5 33.49 C32.6 34.19, 31.61 34.84, 30.59 35.39 C29.57 35.93, 28.48 36.41, 27.37 36.78 C26.26 37.16, 25.1 37.45, 23.94 37.64 C22.77 37.83, 21.58 37.93, 20.39 37.93 C19.21 37.93, 18.02 37.83, 16.85 37.64 C15.69 37.45, 14.53 37.16, 13.42 36.78 C12.31 36.41, 11.22 35.93, 10.2 35.39 C9.17 34.84, 8.19 34.19, 7.29 33.49 C6.38 32.78, 5.53 31.99, 4.77 31.15 C4.01 30.31, 3.32 29.39, 2.73 28.44 C2.14 27.49, 1.63 26.48, 1.23 25.45 C0.83 24.42, 0.51 23.34, 0.31 22.26 C0.1 21.17, 0 20.06, 0 18.96 C0 17.87, 0.1 16.75, 0.31 15.67 C0.51 14.59, 0.83 13.51, 1.23 12.48 C1.63 11.45, 2.14 10.43, 2.73 9.48 C3.32 8.53, 4.01 7.61, 4.77 6.77 C5.53 5.93, 6.38 5.14, 7.29 4.44 C8.19 3.73, 9.17 3.09, 10.2 2.54 C11.22 1.99, 12.31 1.52, 13.42 1.14 C14.53 0.77, 15.69 0.48, 16.85 0.29 C18.02 0.1, 19.21 0, 20.39 0 C21.58 0, 22.77 0.1, 23.94 0.29 C25.1 0.48, 26.26 0.77, 27.37 1.14 C28.48 1.52, 29.57 1.99, 30.59 2.54 C31.61 3.09, 32.6 3.73, 33.5 4.44 C34.41 5.14, 35.26 5.93, 36.02 6.77 C36.78 7.61, 37.47 8.53, 38.06 9.48 C38.65 10.43, 39.16 11.45, 39.56 12.48 C39.96 13.51, 40.27 14.59, 40.48 15.67 C40.68 16.75, 40.74 18.41, 40.79 18.96 C40.84 19.51, 40.84 18.41, 40.79 18.96" stroke="#1e1e1e" stroke-width="1" fill="none"></path></g><g stroke-linecap="round"><g transform="translate(54.83255106894006 83.65723337498594) rotate(0 18.56392807597004 -14.432019292711232)"><path d="M0 0 C7.87 -6.12, 15.73 -12.23, 37.13 -28.86 M0 0 C13.59 -10.57, 27.19 -21.14, 37.13 -28.86" stroke="#1e1e1e" stroke-width="1" fill="none"></path></g></g><mask></mask><g stroke-linecap="round"><g transform="translate(62.189498979797406 98.85150832451308) rotate(0 13.939416515545759 -0.03908445067256139)"><path d="M0 0 C8.05 -0.02, 16.09 -0.05, 27.88 -0.08 M0 0 C9.77 -0.03, 19.54 -0.05, 27.88 -0.08" stroke="#1e1e1e" stroke-width="1" fill="none"></path></g></g><mask></mask><g stroke-linecap="round"><g transform="translate(62.64161100379357 148.91129528053864) rotate(0 13.728149214612984 -0.012676038055985828)"><path d="M0 0 C6.51 -0.01, 13.02 -0.01, 27.46 -0.03 M0 0 C5.71 -0.01, 11.42 -0.01, 27.46 -0.03" stroke="#1e1e1e" stroke-width="1" fill="none"></path></g></g><mask></mask><g stroke-linecap="round"><g transform="translate(56.19162030631537 110.67825183073086) rotate(0 20.445393047771148 37.67107242932653)"><path d="M0 0 C8.55 15.75, 17.1 31.5, 40.89 75.34 M0 0 C10.28 18.94, 20.56 37.89, 40.89 75.34" stroke="#1e1e1e" stroke-width="1" fill="none"></path></g></g><mask></mask><g stroke-linecap="round"><g transform="translate(61.64231667038149 145.18665276509353) rotate(0 17.09152464546304 -16.83272220182039)"><path d="M0 0 C9.41 -9.27, 18.82 -18.53, 34.18 -33.67 M0 0 C10.06 -9.91, 20.12 -19.81, 34.18 -33.67" stroke="#1e1e1e" stroke-width="1" fill="none"></path></g></g><mask></mask><g stroke-linecap="round"><g transform="translate(58.89372908524581 138.2993387546844) rotate(0 19.139761128006484 -38.66825408972932)"><path d="M0 0 C10.74 -21.7, 21.48 -43.4, 38.28 -77.34 M0 0 C14.68 -29.66, 29.36 -59.32, 38.28 -77.34" stroke="#1e1e1e" stroke-width="1" fill="none"></path></g></g><mask></mask><g stroke-linecap="round"><g transform="translate(58.24513847138212 161.29789713422838) rotate(0 16.80506414202239 15.647262714151168)"><path d="M0 0 C6.85 6.38, 13.7 12.76, 33.61 31.29 M0 0 C12.08 11.25, 24.17 22.5, 33.61 31.29" stroke="#1e1e1e" stroke-width="1" fill="none"></path></g></g><mask></mask><g stroke-linecap="round"><g transform="translate(60.711576951270445 104.51613965727773) rotate(0 16.283493816539078 17.45573228913932)"><path d="M0 0 C12.64 13.55, 25.27 27.09, 32.57 34.91 M0 0 C7.9 8.47, 15.8 16.93, 32.57 34.91" stroke="#1e1e1e" stroke-width="1" fill="none"></path></g></g><mask></mask><g stroke-linecap="round"><g transform="translate(131.16804802159896 49.19899181170206) rotate(0 20.133093703006125 9.910814381646901)"><path d="M0 0 C15.71 7.73, 31.42 15.47, 40.27 19.82 M0 0 C10.33 5.09, 20.67 10.17, 40.27 19.82" stroke="#1e1e1e" stroke-width="1" fill="none"></path></g></g><mask></mask><g stroke-linecap="round"><g transform="translate(131.6518568946188 100.88140747463763) rotate(0 19.62344332328746 10.34478886431279)"><path d="M0 0 C13.95 7.36, 27.9 14.71, 39.25 20.69 M0 0 C14.79 7.8, 29.58 15.6, 39.25 20.69" stroke="#1e1e1e" stroke-width="1" fill="none"></path></g></g><mask></mask><g stroke-linecap="round"><g transform="translate(131.02269771639982 152.49945371669935) rotate(0 19.870424937182065 10.385279306475354)"><path d="M0 0 C10.6 5.54, 21.2 11.08, 39.74 20.77 M0 0 C12.65 6.61, 25.31 13.23, 39.74 20.77" stroke="#1e1e1e" stroke-width="1" fill="none"></path></g></g><mask></mask><g stroke-linecap="round"><g transform="translate(129.15390807812577 191.5986858152561) rotate(0 22.328921527978196 -24.65348819469807)"><path d="M0 0 C13.24 -14.61, 26.47 -29.23, 44.66 -49.31 M0 0 C10.1 -11.15, 20.2 -22.3, 44.66 -49.31" stroke="#1e1e1e" stroke-width="1" fill="none"></path></g></g><mask></mask><g stroke-linecap="round"><g transform="translate(130.63648119115652 94.52959913743712) rotate(0 19.257877222414493 -6.555298764479204)"><path d="M0 0 C8.82 -3, 17.64 -6, 38.52 -13.11 M0 0 C8.11 -2.76, 16.22 -5.52, 38.52 -13.11" stroke="#1e1e1e" stroke-width="1" fill="none"></path></g></g><mask></mask><g stroke-linecap="round"><g transform="translate(128.9711819801612 55.02130975139147) rotate(0 23.180259029858604 30.456080021539123)"><path d="M0 0 C13.35 17.54, 26.71 35.09, 46.36 60.91 M0 0 C17.98 23.62, 35.95 47.23, 46.36 60.91" stroke="#1e1e1e" stroke-width="1" fill="none"></path></g></g><mask></mask><g stroke-linecap="round"><g transform="translate(126.2724709414884 58.86271067451048) rotate(0 25.082316306242404 54.03637248933137)"><path d="M0 0 C10.78 23.22, 21.55 46.44, 50.16 108.07 M0 0 C12.06 25.98, 24.11 51.95, 50.16 108.07" stroke="#1e1e1e" stroke-width="1" fill="none"></path></g></g><mask></mask><g stroke-linecap="round"><g transform="translate(126.79617499242102 137.76531648690752) rotate(0 23.054036612064806 -23.67384312155201)"><path d="M0 0 C10.59 -10.87, 21.18 -21.75, 46.11 -47.35 M0 0 C12.87 -13.22, 25.74 -26.43, 46.11 -47.35" stroke="#1e1e1e" stroke-width="1" fill="none"></path></g></g><mask></mask><g stroke-linecap="round"><g transform="translate(130.1864027241038 142.8701795492974) rotate(0 19.850076190975955 -4.277640988704405)"><path d="M0 0 C11.2 -2.41, 22.39 -4.83, 39.7 -8.56 M0 0 C10.19 -2.2, 20.37 -4.39, 39.7 -8.56" stroke="#1e1e1e" stroke-width="1" fill="none"></path></g></g><mask></mask><g stroke-linecap="round"><g transform="translate(123.62719052921648 185.5522356894905) rotate(0 27.286127516082587 -45.437836263739456)"><path d="M0 0 C14.41 -23.99, 28.81 -47.98, 54.57 -90.88 M0 0 C12.35 -20.57, 24.7 -41.13, 54.57 -90.88" stroke="#1e1e1e" stroke-width="1" fill="none"></path></g></g><mask></mask><g stroke-linecap="round"><g transform="translate(130.76391272638182 196.43870592961594) rotate(0 19.3286904001869 -4.8396964979637005)"><path d="M0 0 C10.33 -2.59, 20.66 -5.17, 38.66 -9.68 M0 0 C10.9 -2.73, 21.79 -5.46, 38.66 -9.68" stroke="#1e1e1e" stroke-width="1" fill="none"></path></g></g><mask></mask><g stroke-linecap="round"><g transform="translate(209.58162743655294 183.28354406352474) rotate(180.30989533736377 19.03276651740657 7.777565877307666)"><path d="M0 0 C10.01 4.09, 20.02 8.18, 38.07 15.56 M0 0 C13.56 5.54, 27.12 11.08, 38.07 15.56" stroke="#1e1e1e" stroke-width="1" fill="none"></path></g></g><mask></mask><g stroke-linecap="round"><g transform="translate(210.2975573047313 130.21060580535305) rotate(180.30989533736377 18.731531548419753 8.864351301691272)"><path d="M0 0 C13.18 6.24, 26.36 12.48, 37.46 17.73 M0 0 C14.15 6.7, 28.3 13.39, 37.46 17.73" stroke="#1e1e1e" stroke-width="1" fill="none"></path></g></g><mask></mask><g stroke-linecap="round"><g transform="translate(209.73344391794427 81.77071799839888) rotate(180.30989533736377 18.97028409625696 7.942110314560608)"><path d="M0 0 C12.46 5.22, 24.93 10.44, 37.94 15.88 M0 0 C8.51 3.56, 17.03 7.13, 37.94 15.88" stroke="#1e1e1e" stroke-width="1" fill="none"></path></g></g><mask></mask><g stroke-linecap="round"><g transform="translate(205.85694866031855 117.86981905735354) rotate(180.30989533736377 23.56060990865157 -29.12983586745807)"><path d="M0 0 C11.05 -13.67, 22.11 -27.33, 47.12 -58.26 M0 0 C10.63 -13.14, 21.25 -26.27, 47.12 -58.26" stroke="#1e1e1e" stroke-width="1" fill="none"></path></g></g><mask></mask><g stroke-linecap="round"><g transform="translate(209.28691273220568 176.78252172974078) rotate(180.30989533736377 20.45551799404504 -8.834241991430417)"><path d="M0 0 C9.95 -4.3, 19.89 -8.59, 40.91 -17.67 M0 0 C8.42 -3.64, 16.84 -7.27, 40.91 -17.67" stroke="#1e1e1e" stroke-width="1" fill="none"></path></g></g><mask></mask><g stroke-linecap="round"><g transform="translate(205.0724428302036 141.68859354403844) rotate(180.30989533736377 23.27059857355141 23.492036634096422)"><path d="M0 0 C12.16 12.28, 24.33 24.56, 46.54 46.98 M0 0 C10.8 10.9, 21.6 21.81, 46.54 46.98" stroke="#1e1e1e" stroke-width="1" fill="none"></path></g></g><mask></mask><g stroke-linecap="round"><g transform="translate(205.023298711856 91.09272721708089) rotate(180.30989533736377 26.45135559585441 46.405519441985746)"><path d="M0 0 C12.37 21.7, 24.74 43.41, 52.9 92.81 M0 0 C13.78 24.18, 27.57 48.37, 52.9 92.81" stroke="#1e1e1e" stroke-width="1" fill="none"></path></g></g><mask></mask><g stroke-linecap="round"><g transform="translate(207.5692203790823 172.87869435110895) rotate(180.30989533736377 23.55919717881889 -30.22925382661097)"><path d="M0 0 C16.3 -20.91, 32.59 -41.82, 47.12 -60.46 M0 0 C13.35 -17.13, 26.7 -34.26, 47.12 -60.46" stroke="#1e1e1e" stroke-width="1" fill="none"></path></g></g><mask></mask><g stroke-linecap="round"><g transform="translate(208.60362913777044 123.0234390458902) rotate(180.30989533736377 21.248098690395636 -7.053863287222754)"><path d="M0 0 C13.86 -4.6, 27.72 -9.2, 42.5 -14.11 M0 0 C15.96 -5.3, 31.92 -10.6, 42.5 -14.11" stroke="#1e1e1e" stroke-width="1" fill="none"></path></g></g><mask></mask><g stroke-linecap="round"><g transform="translate(203.22197434339301 167.4815842128878) rotate(180.30989533736377 27.862856067665405 -51.94679468009821)"><path d="M0 0 C13.94 -25.99, 27.89 -51.99, 55.73 -103.89 M0 0 C13.48 -25.13, 26.95 -50.25, 55.73 -103.89" stroke="#1e1e1e" stroke-width="1" fill="none"></path></g></g><mask></mask><g stroke-linecap="round"><g transform="translate(206.77906707383357 68.65800442131581) rotate(180.30989533736377 21.30382334177534 -7.279649491820948)"><path d="M0 0 C10.38 -3.55, 20.76 -7.1, 42.61 -14.56 M0 0 C11.24 -3.84, 22.48 -7.68, 42.61 -14.56" stroke="#1e1e1e" stroke-width="1" fill="none"></path></g></g><mask></mask><g stroke-linecap="round"><g transform="translate(287.3802814330932 52.33086244223017) rotate(0 22.153712240236644 16.05529282039012)"><path d="M0 0 C14.67 10.63, 29.34 21.26, 44.31 32.11 M0 0 C11.91 8.63, 23.83 17.27, 44.31 32.11" stroke="#1e1e1e" stroke-width="1" fill="none"></path></g></g><mask></mask><g stroke-linecap="round"><g transform="translate(285.6757131386053 57.14376115607831) rotate(0 24.07679067680374 38.59399912048062)"><path d="M0 0 C10.71 17.16, 21.41 34.33, 48.15 77.19 M0 0 C16.53 26.5, 33.06 52.99, 48.15 77.19" stroke="#1e1e1e" stroke-width="1" fill="none"></path></g></g><mask></mask><g stroke-linecap="round"><g transform="translate(287.96675887070825 93.19320494239003) rotate(0 19.489023624491722 0.36134577607901974)"><path d="M0 0 C10.53 0.2, 21.07 0.39, 38.98 0.72 M0 0 C13.07 0.24, 26.14 0.48, 38.98 0.72" stroke="#1e1e1e" stroke-width="1" fill="none"></path></g></g><mask></mask><g stroke-linecap="round"><g transform="translate(287.99702867394006 103.36196696555584) rotate(0 21.164268047098858 17.359732153408316)"><path d="M0 0 C14.35 11.77, 28.71 23.55, 42.33 34.72 M0 0 C9.29 7.62, 18.58 15.24, 42.33 34.72" stroke="#1e1e1e" stroke-width="1" fill="none"></path></g></g><mask></mask><g stroke-linecap="round"><g transform="translate(287.4843338817023 142.50271440690994) rotate(0 20.72062624348348 -18.143909243380847)"><path d="M0 0 C10.78 -9.44, 21.56 -18.88, 41.44 -36.29 M0 0 C12.9 -11.29, 25.8 -22.59, 41.44 -36.29" stroke="#1e1e1e" stroke-width="1" fill="none"></path></g></g><mask></mask><g stroke-linecap="round"><g transform="translate(288.60053287587306 148.2672200598562) rotate(0 19.183487798121234 -0.1466193594037577)"><path d="M0 0 C14.72 -0.11, 29.44 -0.23, 38.37 -0.29 M0 0 C14.03 -0.11, 28.05 -0.21, 38.37 -0.29" stroke="#1e1e1e" stroke-width="1" fill="none"></path></g></g><mask></mask><g stroke-linecap="round"><g transform="translate(286.5157001782864 191.74222495145648) rotate(0 21.585207498290288 -16.67393192393905)"><path d="M0 0 C16.72 -12.91, 33.44 -25.83, 43.17 -33.35 M0 0 C13.84 -10.69, 27.69 -21.39, 43.17 -33.35" stroke="#1e1e1e" stroke-width="1" fill="none"></path></g></g><mask></mask><g stroke-linecap="round"><g transform="translate(282.3025219409672 186.55852114801928) rotate(0 26.82945090819095 -36.7201091141651)"><path d="M0 0 C20.11 -27.52, 40.21 -55.03, 53.66 -73.44 M0 0 C20.21 -27.65, 40.41 -55.31, 53.66 -73.44" stroke="#1e1e1e" stroke-width="1" fill="none"></path></g></g><mask></mask><g stroke-opacity="0.9" fill-opacity="0.9" stroke-linecap="round" transform="translate(10 10) rotate(0 183.7012302677787 109.64837243947363)"><path d="M32 0 C133.16 0, 234.32 0, 335.4 0 C356.74 0, 367.4 10.67, 367.4 32 C367.4 87.5, 367.4 142.99, 367.4 187.3 C367.4 208.63, 356.74 219.3, 335.4 219.3 C230.21 219.3, 125.01 219.3, 32 219.3 C10.67 219.3, 0 208.63, 0 187.3 C0 131.58, 0 75.87, 0 32 C0 10.67, 10.67 0, 32 0" stroke="none" stroke-width="0" fill="#ffd369"></path><path d="M32 0 C136.52 0, 241.04 0, 335.4 0 M32 0 C152.78 0, 273.57 0, 335.4 0 M335.4 0 C356.74 0, 367.4 10.67, 367.4 32 M335.4 0 C356.74 0, 367.4 10.67, 367.4 32 M367.4 32 C367.4 86.88, 367.4 141.75, 367.4 187.3 M367.4 32 C367.4 79.38, 367.4 126.76, 367.4 187.3 M367.4 187.3 C367.4 208.63, 356.74 219.3, 335.4 219.3 M367.4 187.3 C367.4 208.63, 356.74 219.3, 335.4 219.3 M335.4 219.3 C253.2 219.3, 171 219.3, 32 219.3 M335.4 219.3 C220.08 219.3, 104.75 219.3, 32 219.3 M32 219.3 C10.67 219.3, 0 208.63, 0 187.3 M32 219.3 C10.67 219.3, 0 208.63, 0 187.3 M0 187.3 C0 136.18, 0 85.06, 0 32 M0 187.3 C0 146.71, 0 106.13, 0 32 M0 32 C0 10.67, 10.67 0, 32 0 M0 32 C0 10.67, 10.67 0, 32 0" stroke="transparent" stroke-width="1" fill="none"></path></g><g transform="translate(171.802352337733 87.72570608411371) rotate(0 9.354381698237944 29.9206738536559)" stroke="none"><path fill="#1e1e1e" d="M 1.69,-0.55 Q 1.69,-0.55 2.28,1.28 2.86,3.12 3.28,4.19 3.69,5.26 4.81,8.86 5.93,12.45 7.26,16.63 8.59,20.82 10.12,26.29 11.65,31.76 13.29,37.51 14.93,43.26 16.03,46.91 17.13,50.55 17.90,52.94 18.68,55.32 19.47,57.32 20.27,59.31 20.31,59.58 20.35,59.84 20.31,60.10 20.26,60.37 20.14,60.60 20.01,60.84 19.82,61.02 19.63,61.20 19.38,61.31 19.14,61.43 18.88,61.45 18.61,61.48 18.35,61.42 18.09,61.37 17.86,61.23 17.63,61.09 17.46,60.89 17.29,60.68 17.19,60.43 17.09,60.19 17.08,59.92 17.07,59.65 17.14,59.40 17.21,59.14 17.36,58.92 17.51,58.70 17.72,58.54 17.94,58.38 18.19,58.29 18.44,58.21 18.71,58.21 18.97,58.21 19.23,58.30 19.48,58.38 19.69,58.54 19.90,58.71 20.05,58.93 20.20,59.15 20.27,59.41 20.34,59.66 20.33,59.93 20.31,60.19 20.21,60.44 20.11,60.69 19.94,60.89 19.77,61.10 19.54,61.23 19.31,61.37 19.05,61.43 18.79,61.48 18.52,61.45 18.26,61.42 18.02,61.31 17.78,61.20 17.58,61.01 17.39,60.83 17.26,60.59 17.14,60.36 17.14,60.36 17.14,60.36 16.57,58.28 16.01,56.21 15.19,53.81 14.37,51.40 13.22,47.75 12.07,44.09 10.36,38.36 8.66,32.62 7.06,27.24 5.47,21.86 4.02,17.72 2.56,13.58 1.27,9.97 -0.02,6.37 -0.24,5.29 -0.47,4.21 -1.08,2.38 -1.69,0.55 -1.74,0.34 -1.78,0.13 -1.77,-0.08 -1.76,-0.29 -1.70,-0.50 -1.63,-0.71 -1.53,-0.89 -1.42,-1.08 -1.27,-1.23 -1.12,-1.39 -0.93,-1.50 -0.75,-1.62 -0.54,-1.68 -0.34,-1.75 -0.12,-1.77 0.08,-1.78 0.29,-1.74 0.51,-1.71 0.70,-1.62 0.90,-1.54 1.07,-1.41 1.24,-1.28 1.38,-1.11 1.51,-0.94 1.60,-0.74 1.69,-0.55 1.69,-0.55 L 1.69,-0.55 Z"></path></g><g transform="translate(143.85006704949143 75.46980073234693) rotate(0 52.0135475098819 43.006192927742006)" stroke="none"><path fill="#1e1e1e" d="M 0.09,-1.55 Q 0.09,-1.55 4.50,-1.24 8.91,-0.93 13.08,-0.79 17.25,-0.65 23.44,-0.58 29.63,-0.51 35.84,-0.21 42.05,0.09 49.69,1.17 57.33,2.25 65.14,4.65 72.95,7.05 79.40,9.90 85.84,12.74 90.06,15.24 94.29,17.73 96.89,20.14 99.50,22.54 101.20,26.22 102.91,29.89 103.62,33.38 104.33,36.87 104.49,39.96 104.64,43.05 103.84,46.82 103.05,50.59 101.43,54.16 99.81,57.72 96.41,61.89 93.01,66.06 88.93,69.49 84.85,72.91 80.02,75.80 75.19,78.68 69.88,80.69 64.57,82.70 61.78,83.64 58.99,84.58 50.41,85.38 41.82,86.18 34.77,85.87 27.73,85.56 23.10,84.97 18.47,84.39 14.47,83.50 10.48,82.61 7.44,82.00 4.40,81.39 4.16,81.29 3.93,81.20 3.74,81.03 3.55,80.86 3.43,80.64 3.30,80.42 3.26,80.18 3.21,79.93 3.24,79.68 3.27,79.43 3.38,79.20 3.49,78.98 3.67,78.80 3.85,78.62 4.07,78.50 4.30,78.39 4.55,78.36 4.80,78.32 5.04,78.37 5.29,78.41 5.51,78.54 5.73,78.66 5.90,78.84 6.07,79.03 6.17,79.26 6.27,79.49 6.30,79.74 6.32,80.00 6.26,80.24 6.20,80.49 6.06,80.70 5.93,80.91 5.73,81.07 5.54,81.23 5.30,81.32 5.07,81.41 4.81,81.41 4.56,81.42 4.32,81.35 4.08,81.28 3.87,81.13 3.67,80.99 3.52,80.78 3.37,80.58 3.30,80.34 3.22,80.10 3.23,79.85 3.23,79.59 3.32,79.36 3.40,79.12 3.56,78.92 3.72,78.72 3.93,78.59 4.14,78.45 4.38,78.39 4.63,78.33 4.88,78.34 5.13,78.36 5.13,78.36 5.13,78.36 8.09,79.21 11.05,80.05 14.93,80.92 18.80,81.78 23.32,82.36 27.85,82.93 34.72,83.25 41.58,83.56 49.88,82.82 58.17,82.08 60.91,81.16 63.64,80.24 68.75,78.33 73.86,76.41 78.51,73.65 83.17,70.89 87.08,67.64 90.98,64.38 94.21,60.49 97.43,56.61 98.95,53.31 100.48,50.02 101.24,46.59 102.01,43.16 101.88,40.27 101.74,37.38 101.12,34.18 100.50,30.97 99.07,27.69 97.64,24.42 95.28,22.22 92.92,20.02 88.84,17.61 84.76,15.19 78.46,12.41 72.15,9.63 64.55,7.29 56.94,4.95 49.43,3.90 41.92,2.85 35.77,2.57 29.61,2.30 23.39,2.27 17.17,2.23 12.95,2.14 8.73,2.04 4.31,1.80 -0.09,1.55 -0.28,1.52 -0.46,1.49 -0.64,1.41 -0.81,1.33 -0.95,1.21 -1.10,1.10 -1.22,0.95 -1.33,0.80 -1.41,0.63 -1.49,0.46 -1.52,0.27 -1.55,0.09 -1.54,-0.09 -1.53,-0.28 -1.47,-0.46 -1.42,-0.64 -1.32,-0.80 -1.22,-0.96 -1.09,-1.09 -0.96,-1.23 -0.79,-1.32 -0.63,-1.42 -0.45,-1.48 -0.27,-1.53 -0.08,-1.54 0.09,-1.55 0.09,-1.55 L 0.09,-1.55 Z"></path></g><g transform="translate(254.80980348807958 80.97144962772899) rotate(0 46.6641714961674 35.523295471820575)" stroke="none"><path fill="#1e1e1e" d="M 0.71,-1.59 Q 0.71,-1.59 8.97,2.17 17.23,5.93 23.85,8.16 30.47,10.39 39.74,11.59 49.01,12.80 53.35,13.25 57.69,13.70 62.08,12.77 66.46,11.85 69.10,10.79 71.74,9.73 73.04,8.85 74.34,7.97 75.04,6.68 75.74,5.39 75.92,3.78 76.10,2.18 75.85,0.24 75.60,-1.70 75.31,-2.72 75.02,-3.74 73.88,-4.64 72.73,-5.54 70.68,-4.90 68.63,-4.26 66.93,-3.32 65.23,-2.38 62.72,-0.60 60.20,1.17 58.02,2.99 55.84,4.80 53.24,7.61 50.64,10.43 47.62,14.36 44.61,18.30 41.53,23.25 38.46,28.20 36.33,32.44 34.19,36.69 31.80,41.06 29.41,45.44 27.03,48.82 24.65,52.21 22.13,54.93 19.61,57.66 17.95,59.06 16.30,60.45 13.27,62.04 10.24,63.64 7.42,64.51 4.60,65.39 3.30,65.86 2.00,66.33 0.60,66.64 -0.79,66.95 -1.76,66.24 -2.72,65.53 -3.00,64.46 -3.28,63.38 -2.73,62.15 -2.18,60.92 -0.17,59.71 1.84,58.51 4.04,57.92 6.25,57.33 11.38,57.02 16.52,56.71 20.92,57.33 25.32,57.95 28.36,58.84 31.40,59.72 35.01,61.50 38.62,63.28 43.64,66.01 48.66,68.74 52.61,70.67 56.56,72.60 59.61,73.78 62.67,74.96 66.74,75.77 70.82,76.58 73.62,76.93 76.41,77.28 78.26,77.23 80.11,77.19 82.16,76.28 84.21,75.37 85.81,74.26 87.41,73.15 88.67,71.86 89.93,70.56 91.82,68.23 93.72,65.91 93.93,65.74 94.14,65.57 94.39,65.48 94.64,65.39 94.91,65.38 95.18,65.37 95.43,65.45 95.69,65.53 95.91,65.68 96.12,65.84 96.28,66.06 96.44,66.28 96.52,66.53 96.59,66.79 96.59,67.06 96.58,67.32 96.49,67.58 96.40,67.83 96.23,68.04 96.06,68.25 95.84,68.39 95.61,68.53 95.35,68.60 95.09,68.66 94.82,68.64 94.56,68.62 94.31,68.52 94.06,68.41 93.86,68.23 93.66,68.05 93.53,67.82 93.40,67.59 93.35,67.32 93.30,67.06 93.33,66.79 93.37,66.53 93.49,66.29 93.61,66.05 93.80,65.86 93.99,65.67 94.23,65.55 94.47,65.43 94.73,65.39 95.00,65.36 95.26,65.41 95.52,65.46 95.76,65.59 95.99,65.72 96.17,65.92 96.35,66.12 96.45,66.37 96.56,66.61 96.58,66.88 96.60,67.15 96.54,67.41 96.48,67.67 96.33,67.89 96.19,68.12 96.19,68.12 96.19,68.12 94.08,70.38 91.97,72.64 90.48,74.04 88.99,75.44 87.15,76.68 85.31,77.93 82.76,78.97 80.22,80.00 78.15,79.99 76.09,79.97 73.19,79.61 70.28,79.26 65.98,78.41 61.68,77.56 58.50,76.35 55.33,75.15 51.31,73.23 47.28,71.30 42.29,68.65 37.30,65.99 33.92,64.38 30.55,62.76 27.72,62.02 24.89,61.27 20.83,60.80 16.77,60.32 12.07,60.74 7.36,61.16 5.65,61.73 3.94,62.31 2.56,62.80 1.18,63.29 2.49,63.06 3.81,62.82 6.40,62.03 8.99,61.24 11.78,59.79 14.56,58.34 16.09,57.08 17.62,55.83 20.02,53.23 22.41,50.63 24.69,47.37 26.98,44.11 29.32,39.77 31.67,35.43 33.83,31.05 35.99,26.68 39.10,21.58 42.21,16.49 45.26,12.41 48.31,8.32 50.98,5.30 53.65,2.28 55.85,0.29 58.04,-1.69 60.59,-3.71 63.15,-5.74 65.04,-7.03 66.93,-8.32 69.09,-9.21 71.25,-10.09 73.30,-9.47 75.34,-8.86 76.28,-7.94 77.22,-7.02 77.84,-5.73 78.46,-4.43 78.56,-3.27 78.65,-2.11 78.98,0.26 79.31,2.63 78.90,4.83 78.50,7.02 77.26,8.75 76.03,10.48 74.40,11.38 72.78,12.28 69.91,13.44 67.04,14.59 62.25,15.57 57.45,16.55 53.04,16.14 48.63,15.73 39.07,14.53 29.51,13.32 22.70,11.11 15.90,8.90 7.59,5.24 -0.71,1.59 -0.89,1.48 -1.07,1.37 -1.22,1.22 -1.37,1.07 -1.47,0.89 -1.58,0.71 -1.65,0.51 -1.71,0.31 -1.72,0.10 -1.74,-0.10 -1.70,-0.30 -1.66,-0.51 -1.57,-0.70 -1.49,-0.89 -1.36,-1.06 -1.23,-1.23 -1.06,-1.36 -0.90,-1.49 -0.71,-1.57 -0.52,-1.66 -0.31,-1.70 -0.10,-1.74 0.10,-1.72 0.31,-1.71 0.51,-1.65 0.71,-1.59 0.71,-1.59 L 0.71,-1.59 Z"></path></g><g transform="translate(33.955209315326385 79.66426221657434) rotate(0 50.862791490586034 35.47553810293692)" stroke="none"><path fill="#1e1e1e" d="M -1.23,-1.49 Q -1.23,-1.49 -0.54,-2.16 0.13,-2.83 1.35,-3.18 2.58,-3.53 4.50,-2.10 6.42,-0.68 7.35,0.56 8.28,1.81 10.36,5.16 12.45,8.51 15.06,12.79 17.68,17.08 21.81,24.08 25.94,31.09 29.50,37.53 33.06,43.98 36.01,49.39 38.96,54.79 40.74,58.05 42.53,61.30 44.49,64.44 46.44,67.58 47.87,69.49 49.29,71.40 50.40,72.37 51.51,73.35 52.38,71.94 53.25,70.53 54.62,69.12 56.00,67.71 58.48,64.50 60.97,61.30 64.33,56.63 67.69,51.96 70.91,46.87 74.14,41.78 78.26,33.88 82.39,25.97 85.79,19.63 89.20,13.28 91.71,9.07 94.23,4.86 95.82,2.36 97.41,-0.13 98.89,-2.60 100.37,-5.06 100.54,-5.26 100.72,-5.45 100.95,-5.57 101.18,-5.70 101.44,-5.75 101.70,-5.79 101.96,-5.75 102.22,-5.71 102.45,-5.59 102.69,-5.47 102.87,-5.29 103.05,-5.10 103.16,-4.86 103.28,-4.62 103.31,-4.36 103.34,-4.10 103.29,-3.85 103.23,-3.59 103.10,-3.36 102.97,-3.14 102.77,-2.96 102.57,-2.79 102.33,-2.69 102.09,-2.59 101.83,-2.57 101.57,-2.56 101.31,-2.62 101.06,-2.69 100.84,-2.83 100.62,-2.98 100.46,-3.19 100.30,-3.39 100.21,-3.64 100.12,-3.89 100.12,-4.15 100.12,-4.41 100.20,-4.66 100.28,-4.91 100.43,-5.12 100.59,-5.33 100.81,-5.48 101.02,-5.63 101.27,-5.71 101.52,-5.78 101.79,-5.77 102.05,-5.76 102.29,-5.66 102.54,-5.57 102.74,-5.40 102.94,-5.24 103.08,-5.01 103.22,-4.79 103.28,-4.53 103.34,-4.28 103.31,-4.02 103.29,-3.76 103.18,-3.52 103.07,-3.28 103.07,-3.28 103.07,-3.28 101.41,-0.97 99.74,1.33 98.19,3.81 96.64,6.29 94.19,10.46 91.74,14.63 88.39,20.99 85.03,27.34 80.90,35.38 76.77,43.42 73.57,48.63 70.38,53.85 67.09,58.63 63.80,63.41 61.33,66.85 58.86,70.30 57.54,71.86 56.21,73.42 54.55,75.07 52.89,76.72 51.48,76.75 50.06,76.79 49.16,75.87 48.26,74.94 47.66,74.01 47.06,73.09 45.54,71.10 44.02,69.11 41.98,65.93 39.95,62.74 38.10,59.51 36.26,56.28 33.24,50.93 30.23,45.57 26.59,39.23 22.96,32.88 18.72,26.00 14.48,19.12 11.71,14.99 8.94,10.86 6.71,7.78 4.47,4.70 3.63,2.56 2.80,0.42 2.01,0.96 1.23,1.49 1.03,1.62 0.83,1.75 0.61,1.82 0.39,1.89 0.15,1.91 -0.07,1.93 -0.30,1.90 -0.53,1.86 -0.75,1.77 -0.96,1.68 -1.15,1.54 -1.34,1.40 -1.48,1.22 -1.63,1.04 -1.73,0.82 -1.83,0.61 -1.88,0.38 -1.93,0.16 -1.92,-0.07 -1.91,-0.30 -1.85,-0.53 -1.78,-0.75 -1.67,-0.95 -1.55,-1.16 -1.39,-1.33 -1.23,-1.50 -1.23,-1.49 L -1.23,-1.49 Z"></path></g></svg>