<svg version="1.1" xmlns="http://www.w3.org/2000/svg" viewBox="0 0 366.37109350000014 211.91601606249998" width="732.7421870000003" height="423.83203212499996">
  <!-- svg-source:excalidraw -->
  
  <defs>
    <style class="style-fonts">
      
    </style>
    
  </defs>
  <g stroke-linecap="round" transform="translate(79.13281225000009 10) rotate(0 20.39453125 18.962890625)"><path d="M40.79 18.96 C40.79 20.06, 40.68 21.17, 40.48 22.26 C40.27 23.34, 39.96 24.42, 39.56 25.45 C39.16 26.48, 38.65 27.49, 38.06 28.44 C37.47 29.39, 36.78 30.31, 36.02 31.15 C35.26 31.99, 34.41 32.78, 33.5 33.49 C32.6 34.19, 31.61 34.84, 30.59 35.39 C29.57 35.93, 28.48 36.41, 27.37 36.78 C26.26 37.16, 25.1 37.45, 23.94 37.64 C22.77 37.83, 21.58 37.93, 20.39 37.93 C19.21 37.93, 18.02 37.83, 16.85 37.64 C15.69 37.45, 14.53 37.16, 13.42 36.78 C12.31 36.41, 11.22 35.93, 10.2 35.39 C9.17 34.84, 8.19 34.19, 7.29 33.49 C6.38 32.78, 5.53 31.99, 4.77 31.15 C4.01 30.31, 3.32 29.39, 2.73 28.44 C2.14 27.49, 1.63 26.48, 1.23 25.45 C0.83 24.42, 0.51 23.34, 0.31 22.26 C0.1 21.17, 0 20.06, 0 18.96 C0 17.87, 0.1 16.75, 0.31 15.67 C0.51 14.59, 0.83 13.51, 1.23 12.48 C1.63 11.45, 2.14 10.43, 2.73 9.48 C3.32 8.53, 4.01 7.61, 4.77 6.77 C5.53 5.93, 6.38 5.14, 7.29 4.44 C8.19 3.73, 9.17 3.09, 10.2 2.54 C11.22 1.99, 12.31 1.52, 13.42 1.14 C14.53 0.77, 15.69 0.48, 16.85 0.29 C18.02 0.1, 19.21 0, 20.39 0 C21.58 0, 22.77 0.1, 23.94 0.29 C25.1 0.48, 26.26 0.77, 27.37 1.14 C28.48 1.52, 29.57 1.99, 30.59 2.54 C31.61 3.09, 32.6 3.73, 33.5 4.44 C34.41 5.14, 35.26 5.93, 36.02 6.77 C36.78 7.61, 37.47 8.53, 38.06 9.48 C38.65 10.43, 39.16 11.45, 39.56 12.48 C39.96 13.51, 40.27 14.59, 40.48 15.67 C40.68 16.75, 40.74 18.41, 40.79 18.96 C40.84 19.51, 40.84 18.41, 40.79 18.96" stroke="#1e1e1e" stroke-width="1" fill="none"></path></g><g stroke-linecap="round" transform="translate(79.13281150000006 61.330078625) rotate(0 20.39453125 18.962890625)"><path d="M40.79 18.96 C40.79 20.06, 40.68 21.17, 40.48 22.26 C40.27 23.34, 39.96 24.42, 39.56 25.45 C39.16 26.48, 38.65 27.49, 38.06 28.44 C37.47 29.39, 36.78 30.31, 36.02 31.15 C35.26 31.99, 34.41 32.78, 33.5 33.49 C32.6 34.19, 31.61 34.84, 30.59 35.39 C29.57 35.93, 28.48 36.41, 27.37 36.78 C26.26 37.16, 25.1 37.45, 23.94 37.64 C22.77 37.83, 21.58 37.93, 20.39 37.93 C19.21 37.93, 18.02 37.83, 16.85 37.64 C15.69 37.45, 14.53 37.16, 13.42 36.78 C12.31 36.41, 11.22 35.93, 10.2 35.39 C9.17 34.84, 8.19 34.19, 7.29 33.49 C6.38 32.78, 5.53 31.99, 4.77 31.15 C4.01 30.31, 3.32 29.39, 2.73 28.44 C2.14 27.49, 1.63 26.48, 1.23 25.45 C0.83 24.42, 0.51 23.34, 0.31 22.26 C0.1 21.17, 0 20.06, 0 18.96 C0 17.87, 0.1 16.75, 0.31 15.67 C0.51 14.59, 0.83 13.51, 1.23 12.48 C1.63 11.45, 2.14 10.43, 2.73 9.48 C3.32 8.53, 4.01 7.61, 4.77 6.77 C5.53 5.93, 6.38 5.14, 7.29 4.44 C8.19 3.73, 9.17 3.09, 10.2 2.54 C11.22 1.99, 12.31 1.52, 13.42 1.14 C14.53 0.77, 15.69 0.48, 16.85 0.29 C18.02 0.1, 19.21 0, 20.39 0 C21.58 0, 22.77 0.1, 23.94 0.29 C25.1 0.48, 26.26 0.77, 27.37 1.14 C28.48 1.52, 29.57 1.99, 30.59 2.54 C31.61 3.09, 32.6 3.73, 33.5 4.44 C34.41 5.14, 35.26 5.93, 36.02 6.77 C36.78 7.61, 37.47 8.53, 38.06 9.48 C38.65 10.43, 39.16 11.45, 39.56 12.48 C39.96 13.51, 40.27 14.59, 40.48 15.67 C40.68 16.75, 40.74 18.41, 40.79 18.96 C40.84 19.51, 40.84 18.41, 40.79 18.96" stroke="#1e1e1e" stroke-width="1" fill="none"></path></g><g stroke-linecap="round" transform="translate(79.13281099999989 112.6601561249999) rotate(0 20.39453125 18.962890625)"><path d="M40.79 18.96 C40.79 20.06, 40.68 21.17, 40.48 22.26 C40.27 23.34, 39.96 24.42, 39.56 25.45 C39.16 26.48, 38.65 27.49, 38.06 28.44 C37.47 29.39, 36.78 30.31, 36.02 31.15 C35.26 31.99, 34.41 32.78, 33.5 33.49 C32.6 34.19, 31.61 34.84, 30.59 35.39 C29.57 35.93, 28.48 36.41, 27.37 36.78 C26.26 37.16, 25.1 37.45, 23.94 37.64 C22.77 37.83, 21.58 37.93, 20.39 37.93 C19.21 37.93, 18.02 37.83, 16.85 37.64 C15.69 37.45, 14.53 37.16, 13.42 36.78 C12.31 36.41, 11.22 35.93, 10.2 35.39 C9.17 34.84, 8.19 34.19, 7.29 33.49 C6.38 32.78, 5.53 31.99, 4.77 31.15 C4.01 30.31, 3.32 29.39, 2.73 28.44 C2.14 27.49, 1.63 26.48, 1.23 25.45 C0.83 24.42, 0.51 23.34, 0.31 22.26 C0.1 21.17, 0 20.06, 0 18.96 C0 17.87, 0.1 16.75, 0.31 15.67 C0.51 14.59, 0.83 13.51, 1.23 12.48 C1.63 11.45, 2.14 10.43, 2.73 9.48 C3.32 8.53, 4.01 7.61, 4.77 6.77 C5.53 5.93, 6.38 5.14, 7.29 4.44 C8.19 3.73, 9.17 3.09, 10.2 2.54 C11.22 1.99, 12.31 1.52, 13.42 1.14 C14.53 0.77, 15.69 0.48, 16.85 0.29 C18.02 0.1, 19.21 0, 20.39 0 C21.58 0, 22.77 0.1, 23.94 0.29 C25.1 0.48, 26.26 0.77, 27.37 1.14 C28.48 1.52, 29.57 1.99, 30.59 2.54 C31.61 3.09, 32.6 3.73, 33.5 4.44 C34.41 5.14, 35.26 5.93, 36.02 6.77 C36.78 7.61, 37.47 8.53, 38.06 9.48 C38.65 10.43, 39.16 11.45, 39.56 12.48 C39.96 13.51, 40.27 14.59, 40.48 15.67 C40.68 16.75, 40.74 18.41, 40.79 18.96 C40.84 19.51, 40.84 18.41, 40.79 18.96" stroke="#1e1e1e" stroke-width="1" fill="none"></path></g><g stroke-linecap="round" transform="translate(79.13281300000011 163.9902343750001) rotate(0 20.39453125 18.962890625)"><path d="M40.79 18.96 C40.79 20.06, 40.68 21.17, 40.48 22.26 C40.27 23.34, 39.96 24.42, 39.56 25.45 C39.16 26.48, 38.65 27.49, 38.06 28.44 C37.47 29.39, 36.78 30.31, 36.02 31.15 C35.26 31.99, 34.41 32.78, 33.5 33.49 C32.6 34.19, 31.61 34.84, 30.59 35.39 C29.57 35.93, 28.48 36.41, 27.37 36.78 C26.26 37.16, 25.1 37.45, 23.94 37.64 C22.77 37.83, 21.58 37.93, 20.39 37.93 C19.21 37.93, 18.02 37.83, 16.85 37.64 C15.69 37.45, 14.53 37.16, 13.42 36.78 C12.31 36.41, 11.22 35.93, 10.2 35.39 C9.17 34.84, 8.19 34.19, 7.29 33.49 C6.38 32.78, 5.53 31.99, 4.77 31.15 C4.01 30.31, 3.32 29.39, 2.73 28.44 C2.14 27.49, 1.63 26.48, 1.23 25.45 C0.83 24.42, 0.51 23.34, 0.31 22.26 C0.1 21.17, 0 20.06, 0 18.96 C0 17.87, 0.1 16.75, 0.31 15.67 C0.51 14.59, 0.83 13.51, 1.23 12.48 C1.63 11.45, 2.14 10.43, 2.73 9.48 C3.32 8.53, 4.01 7.61, 4.77 6.77 C5.53 5.93, 6.38 5.14, 7.29 4.44 C8.19 3.73, 9.17 3.09, 10.2 2.54 C11.22 1.99, 12.31 1.52, 13.42 1.14 C14.53 0.77, 15.69 0.48, 16.85 0.29 C18.02 0.1, 19.21 0, 20.39 0 C21.58 0, 22.77 0.1, 23.94 0.29 C25.1 0.48, 26.26 0.77, 27.37 1.14 C28.48 1.52, 29.57 1.99, 30.59 2.54 C31.61 3.09, 32.6 3.73, 33.5 4.44 C34.41 5.14, 35.26 5.93, 36.02 6.77 C36.78 7.61, 37.47 8.53, 38.06 9.48 C38.65 10.43, 39.16 11.45, 39.56 12.48 C39.96 13.51, 40.27 14.59, 40.48 15.67 C40.68 16.75, 40.74 18.41, 40.79 18.96 C40.84 19.51, 40.84 18.41, 40.79 18.96" stroke="#1e1e1e" stroke-width="1" fill="none"></path></g><g stroke-linecap="round" transform="translate(157.94921949999997 93.46679612500003) rotate(0 20.39453125 18.962890625)"><path d="M40.79 18.96 C40.79 20.06, 40.68 21.17, 40.48 22.26 C40.27 23.34, 39.96 24.42, 39.56 25.45 C39.16 26.48, 38.65 27.49, 38.06 28.44 C37.47 29.39, 36.78 30.31, 36.02 31.15 C35.26 31.99, 34.41 32.78, 33.5 33.49 C32.6 34.19, 31.61 34.84, 30.59 35.39 C29.57 35.93, 28.48 36.41, 27.37 36.78 C26.26 37.16, 25.1 37.45, 23.94 37.64 C22.77 37.83, 21.58 37.93, 20.39 37.93 C19.21 37.93, 18.02 37.83, 16.85 37.64 C15.69 37.45, 14.53 37.16, 13.42 36.78 C12.31 36.41, 11.22 35.93, 10.2 35.39 C9.17 34.84, 8.19 34.19, 7.29 33.49 C6.38 32.78, 5.53 31.99, 4.77 31.15 C4.01 30.31, 3.32 29.39, 2.73 28.44 C2.14 27.49, 1.63 26.48, 1.23 25.45 C0.83 24.42, 0.51 23.34, 0.31 22.26 C0.1 21.17, 0 20.06, 0 18.96 C0 17.87, 0.1 16.75, 0.31 15.67 C0.51 14.59, 0.83 13.51, 1.23 12.48 C1.63 11.45, 2.14 10.43, 2.73 9.48 C3.32 8.53, 4.01 7.61, 4.77 6.77 C5.53 5.93, 6.38 5.14, 7.29 4.44 C8.19 3.73, 9.17 3.09, 10.2 2.54 C11.22 1.99, 12.31 1.52, 13.42 1.14 C14.53 0.77, 15.69 0.48, 16.85 0.29 C18.02 0.1, 19.21 0, 20.39 0 C21.58 0, 22.77 0.1, 23.94 0.29 C25.1 0.48, 26.26 0.77, 27.37 1.14 C28.48 1.52, 29.57 1.99, 30.59 2.54 C31.61 3.09, 32.6 3.73, 33.5 4.44 C34.41 5.14, 35.26 5.93, 36.02 6.77 C36.78 7.61, 37.47 8.53, 38.06 9.48 C38.65 10.43, 39.16 11.45, 39.56 12.48 C39.96 13.51, 40.27 14.59, 40.48 15.67 C40.68 16.75, 40.74 18.41, 40.79 18.96 C40.84 19.51, 40.84 18.41, 40.79 18.96" stroke="#1e1e1e" stroke-width="1" fill="none"></path></g><g stroke-linecap="round" transform="translate(157.9492185000001 145.02734337500004) rotate(0 20.39453125 18.962890625)"><path d="M40.79 18.96 C40.79 20.06, 40.68 21.17, 40.48 22.26 C40.27 23.34, 39.96 24.42, 39.56 25.45 C39.16 26.48, 38.65 27.49, 38.06 28.44 C37.47 29.39, 36.78 30.31, 36.02 31.15 C35.26 31.99, 34.41 32.78, 33.5 33.49 C32.6 34.19, 31.61 34.84, 30.59 35.39 C29.57 35.93, 28.48 36.41, 27.37 36.78 C26.26 37.16, 25.1 37.45, 23.94 37.64 C22.77 37.83, 21.58 37.93, 20.39 37.93 C19.21 37.93, 18.02 37.83, 16.85 37.64 C15.69 37.45, 14.53 37.16, 13.42 36.78 C12.31 36.41, 11.22 35.93, 10.2 35.39 C9.17 34.84, 8.19 34.19, 7.29 33.49 C6.38 32.78, 5.53 31.99, 4.77 31.15 C4.01 30.31, 3.32 29.39, 2.73 28.44 C2.14 27.49, 1.63 26.48, 1.23 25.45 C0.83 24.42, 0.51 23.34, 0.31 22.26 C0.1 21.17, 0 20.06, 0 18.96 C0 17.87, 0.1 16.75, 0.31 15.67 C0.51 14.59, 0.83 13.51, 1.23 12.48 C1.63 11.45, 2.14 10.43, 2.73 9.48 C3.32 8.53, 4.01 7.61, 4.77 6.77 C5.53 5.93, 6.38 5.14, 7.29 4.44 C8.19 3.73, 9.17 3.09, 10.2 2.54 C11.22 1.99, 12.31 1.52, 13.42 1.14 C14.53 0.77, 15.69 0.48, 16.85 0.29 C18.02 0.1, 19.21 0, 20.39 0 C21.58 0, 22.77 0.1, 23.94 0.29 C25.1 0.48, 26.26 0.77, 27.37 1.14 C28.48 1.52, 29.57 1.99, 30.59 2.54 C31.61 3.09, 32.6 3.73, 33.5 4.44 C34.41 5.14, 35.26 5.93, 36.02 6.77 C36.78 7.61, 37.47 8.53, 38.06 9.48 C38.65 10.43, 39.16 11.45, 39.56 12.48 C39.96 13.51, 40.27 14.59, 40.48 15.67 C40.68 16.75, 40.74 18.41, 40.79 18.96 C40.84 19.51, 40.84 18.41, 40.79 18.96" stroke="#1e1e1e" stroke-width="1" fill="none"></path></g><g stroke-linecap="round" transform="translate(157.94921949999997 42.13671862500007) rotate(0 20.39453125 18.962890625)"><path d="M40.79 18.96 C40.79 20.06, 40.68 21.17, 40.48 22.26 C40.27 23.34, 39.96 24.42, 39.56 25.45 C39.16 26.48, 38.65 27.49, 38.06 28.44 C37.47 29.39, 36.78 30.31, 36.02 31.15 C35.26 31.99, 34.41 32.78, 33.5 33.49 C32.6 34.19, 31.61 34.84, 30.59 35.39 C29.57 35.93, 28.48 36.41, 27.37 36.78 C26.26 37.16, 25.1 37.45, 23.94 37.64 C22.77 37.83, 21.58 37.93, 20.39 37.93 C19.21 37.93, 18.02 37.83, 16.85 37.64 C15.69 37.45, 14.53 37.16, 13.42 36.78 C12.31 36.41, 11.22 35.93, 10.2 35.39 C9.17 34.84, 8.19 34.19, 7.29 33.49 C6.38 32.78, 5.53 31.99, 4.77 31.15 C4.01 30.31, 3.32 29.39, 2.73 28.44 C2.14 27.49, 1.63 26.48, 1.23 25.45 C0.83 24.42, 0.51 23.34, 0.31 22.26 C0.1 21.17, 0 20.06, 0 18.96 C0 17.87, 0.1 16.75, 0.31 15.67 C0.51 14.59, 0.83 13.51, 1.23 12.48 C1.63 11.45, 2.14 10.43, 2.73 9.48 C3.32 8.53, 4.01 7.61, 4.77 6.77 C5.53 5.93, 6.38 5.14, 7.29 4.44 C8.19 3.73, 9.17 3.09, 10.2 2.54 C11.22 1.99, 12.31 1.52, 13.42 1.14 C14.53 0.77, 15.69 0.48, 16.85 0.29 C18.02 0.1, 19.21 0, 20.39 0 C21.58 0, 22.77 0.1, 23.94 0.29 C25.1 0.48, 26.26 0.77, 27.37 1.14 C28.48 1.52, 29.57 1.99, 30.59 2.54 C31.61 3.09, 32.6 3.73, 33.5 4.44 C34.41 5.14, 35.26 5.93, 36.02 6.77 C36.78 7.61, 37.47 8.53, 38.06 9.48 C38.65 10.43, 39.16 11.45, 39.56 12.48 C39.96 13.51, 40.27 14.59, 40.48 15.67 C40.68 16.75, 40.74 18.41, 40.79 18.96 C40.84 19.51, 40.84 18.41, 40.79 18.96" stroke="#1e1e1e" stroke-width="1" fill="none"></path></g><g stroke-linecap="round" transform="translate(236.76562574999997 10.000000437499978) rotate(0 20.39453125 18.962890625)"><path d="M40.79 18.96 C40.79 20.06, 40.68 21.17, 40.48 22.26 C40.27 23.34, 39.96 24.42, 39.56 25.45 C39.16 26.48, 38.65 27.49, 38.06 28.44 C37.47 29.39, 36.78 30.31, 36.02 31.15 C35.26 31.99, 34.41 32.78, 33.5 33.49 C32.6 34.19, 31.61 34.84, 30.59 35.39 C29.57 35.93, 28.48 36.41, 27.37 36.78 C26.26 37.16, 25.1 37.45, 23.94 37.64 C22.77 37.83, 21.58 37.93, 20.39 37.93 C19.21 37.93, 18.02 37.83, 16.85 37.64 C15.69 37.45, 14.53 37.16, 13.42 36.78 C12.31 36.41, 11.22 35.93, 10.2 35.39 C9.17 34.84, 8.19 34.19, 7.29 33.49 C6.38 32.78, 5.53 31.99, 4.77 31.15 C4.01 30.31, 3.32 29.39, 2.73 28.44 C2.14 27.49, 1.63 26.48, 1.23 25.45 C0.83 24.42, 0.51 23.34, 0.31 22.26 C0.1 21.17, 0 20.06, 0 18.96 C0 17.87, 0.1 16.75, 0.31 15.67 C0.51 14.59, 0.83 13.51, 1.23 12.48 C1.63 11.45, 2.14 10.43, 2.73 9.48 C3.32 8.53, 4.01 7.61, 4.77 6.77 C5.53 5.93, 6.38 5.14, 7.29 4.44 C8.19 3.73, 9.17 3.09, 10.2 2.54 C11.22 1.99, 12.31 1.52, 13.42 1.14 C14.53 0.77, 15.69 0.48, 16.85 0.29 C18.02 0.1, 19.21 0, 20.39 0 C21.58 0, 22.77 0.1, 23.94 0.29 C25.1 0.48, 26.26 0.77, 27.37 1.14 C28.48 1.52, 29.57 1.99, 30.59 2.54 C31.61 3.09, 32.6 3.73, 33.5 4.44 C34.41 5.14, 35.26 5.93, 36.02 6.77 C36.78 7.61, 37.47 8.53, 38.06 9.48 C38.65 10.43, 39.16 11.45, 39.56 12.48 C39.96 13.51, 40.27 14.59, 40.48 15.67 C40.68 16.75, 40.74 18.41, 40.79 18.96 C40.84 19.51, 40.84 18.41, 40.79 18.96" stroke="#1e1e1e" stroke-width="1" fill="none"></path></g><g stroke-linecap="round" transform="translate(236.76562499999994 61.33007906249992) rotate(0 20.39453125 18.962890625)"><path d="M40.79 18.96 C40.79 20.06, 40.68 21.17, 40.48 22.26 C40.27 23.34, 39.96 24.42, 39.56 25.45 C39.16 26.48, 38.65 27.49, 38.06 28.44 C37.47 29.39, 36.78 30.31, 36.02 31.15 C35.26 31.99, 34.41 32.78, 33.5 33.49 C32.6 34.19, 31.61 34.84, 30.59 35.39 C29.57 35.93, 28.48 36.41, 27.37 36.78 C26.26 37.16, 25.1 37.45, 23.94 37.64 C22.77 37.83, 21.58 37.93, 20.39 37.93 C19.21 37.93, 18.02 37.83, 16.85 37.64 C15.69 37.45, 14.53 37.16, 13.42 36.78 C12.31 36.41, 11.22 35.93, 10.2 35.39 C9.17 34.84, 8.19 34.19, 7.29 33.49 C6.38 32.78, 5.53 31.99, 4.77 31.15 C4.01 30.31, 3.32 29.39, 2.73 28.44 C2.14 27.49, 1.63 26.48, 1.23 25.45 C0.83 24.42, 0.51 23.34, 0.31 22.26 C0.1 21.17, 0 20.06, 0 18.96 C0 17.87, 0.1 16.75, 0.31 15.67 C0.51 14.59, 0.83 13.51, 1.23 12.48 C1.63 11.45, 2.14 10.43, 2.73 9.48 C3.32 8.53, 4.01 7.61, 4.77 6.77 C5.53 5.93, 6.38 5.14, 7.29 4.44 C8.19 3.73, 9.17 3.09, 10.2 2.54 C11.22 1.99, 12.31 1.52, 13.42 1.14 C14.53 0.77, 15.69 0.48, 16.85 0.29 C18.02 0.1, 19.21 0, 20.39 0 C21.58 0, 22.77 0.1, 23.94 0.29 C25.1 0.48, 26.26 0.77, 27.37 1.14 C28.48 1.52, 29.57 1.99, 30.59 2.54 C31.61 3.09, 32.6 3.73, 33.5 4.44 C34.41 5.14, 35.26 5.93, 36.02 6.77 C36.78 7.61, 37.47 8.53, 38.06 9.48 C38.65 10.43, 39.16 11.45, 39.56 12.48 C39.96 13.51, 40.27 14.59, 40.48 15.67 C40.68 16.75, 40.74 18.41, 40.79 18.96 C40.84 19.51, 40.84 18.41, 40.79 18.96" stroke="#1e1e1e" stroke-width="1" fill="none"></path></g><g stroke-linecap="round" transform="translate(236.7656245 112.66015656249982) rotate(0 20.39453125 18.962890625)"><path d="M40.79 18.96 C40.79 20.06, 40.68 21.17, 40.48 22.26 C40.27 23.34, 39.96 24.42, 39.56 25.45 C39.16 26.48, 38.65 27.49, 38.06 28.44 C37.47 29.39, 36.78 30.31, 36.02 31.15 C35.26 31.99, 34.41 32.78, 33.5 33.49 C32.6 34.19, 31.61 34.84, 30.59 35.39 C29.57 35.93, 28.48 36.41, 27.37 36.78 C26.26 37.16, 25.1 37.45, 23.94 37.64 C22.77 37.83, 21.58 37.93, 20.39 37.93 C19.21 37.93, 18.02 37.83, 16.85 37.64 C15.69 37.45, 14.53 37.16, 13.42 36.78 C12.31 36.41, 11.22 35.93, 10.2 35.39 C9.17 34.84, 8.19 34.19, 7.29 33.49 C6.38 32.78, 5.53 31.99, 4.77 31.15 C4.01 30.31, 3.32 29.39, 2.73 28.44 C2.14 27.49, 1.63 26.48, 1.23 25.45 C0.83 24.42, 0.51 23.34, 0.31 22.26 C0.1 21.17, 0 20.06, 0 18.96 C0 17.87, 0.1 16.75, 0.31 15.67 C0.51 14.59, 0.83 13.51, 1.23 12.48 C1.63 11.45, 2.14 10.43, 2.73 9.48 C3.32 8.53, 4.01 7.61, 4.77 6.77 C5.53 5.93, 6.38 5.14, 7.29 4.44 C8.19 3.73, 9.17 3.09, 10.2 2.54 C11.22 1.99, 12.31 1.52, 13.42 1.14 C14.53 0.77, 15.69 0.48, 16.85 0.29 C18.02 0.1, 19.21 0, 20.39 0 C21.58 0, 22.77 0.1, 23.94 0.29 C25.1 0.48, 26.26 0.77, 27.37 1.14 C28.48 1.52, 29.57 1.99, 30.59 2.54 C31.61 3.09, 32.6 3.73, 33.5 4.44 C34.41 5.14, 35.26 5.93, 36.02 6.77 C36.78 7.61, 37.47 8.53, 38.06 9.48 C38.65 10.43, 39.16 11.45, 39.56 12.48 C39.96 13.51, 40.27 14.59, 40.48 15.67 C40.68 16.75, 40.74 18.41, 40.79 18.96 C40.84 19.51, 40.84 18.41, 40.79 18.96" stroke="#1e1e1e" stroke-width="1" fill="none"></path></g><g stroke-linecap="round" transform="translate(236.7656265 163.99023481249998) rotate(0 20.39453125 18.962890625)"><path d="M40.79 18.96 C40.79 20.06, 40.68 21.17, 40.48 22.26 C40.27 23.34, 39.96 24.42, 39.56 25.45 C39.16 26.48, 38.65 27.49, 38.06 28.44 C37.47 29.39, 36.78 30.31, 36.02 31.15 C35.26 31.99, 34.41 32.78, 33.5 33.49 C32.6 34.19, 31.61 34.84, 30.59 35.39 C29.57 35.93, 28.48 36.41, 27.37 36.78 C26.26 37.16, 25.1 37.45, 23.94 37.64 C22.77 37.83, 21.58 37.93, 20.39 37.93 C19.21 37.93, 18.02 37.83, 16.85 37.64 C15.69 37.45, 14.53 37.16, 13.42 36.78 C12.31 36.41, 11.22 35.93, 10.2 35.39 C9.17 34.84, 8.19 34.19, 7.29 33.49 C6.38 32.78, 5.53 31.99, 4.77 31.15 C4.01 30.31, 3.32 29.39, 2.73 28.44 C2.14 27.49, 1.63 26.48, 1.23 25.45 C0.83 24.42, 0.51 23.34, 0.31 22.26 C0.1 21.17, 0 20.06, 0 18.96 C0 17.87, 0.1 16.75, 0.31 15.67 C0.51 14.59, 0.83 13.51, 1.23 12.48 C1.63 11.45, 2.14 10.43, 2.73 9.48 C3.32 8.53, 4.01 7.61, 4.77 6.77 C5.53 5.93, 6.38 5.14, 7.29 4.44 C8.19 3.73, 9.17 3.09, 10.2 2.54 C11.22 1.99, 12.31 1.52, 13.42 1.14 C14.53 0.77, 15.69 0.48, 16.85 0.29 C18.02 0.1, 19.21 0, 20.39 0 C21.58 0, 22.77 0.1, 23.94 0.29 C25.1 0.48, 26.26 0.77, 27.37 1.14 C28.48 1.52, 29.57 1.99, 30.59 2.54 C31.61 3.09, 32.6 3.73, 33.5 4.44 C34.41 5.14, 35.26 5.93, 36.02 6.77 C36.78 7.61, 37.47 8.53, 38.06 9.48 C38.65 10.43, 39.16 11.45, 39.56 12.48 C39.96 13.51, 40.27 14.59, 40.48 15.67 C40.68 16.75, 40.74 18.41, 40.79 18.96 C40.84 19.51, 40.84 18.41, 40.79 18.96" stroke="#1e1e1e" stroke-width="1" fill="none"></path></g><g stroke-linecap="round" transform="translate(10 112.66015737500004) rotate(0 20.39453125 18.962890625)"><path d="M40.79 18.96 C40.79 20.06, 40.68 21.17, 40.48 22.26 C40.27 23.34, 39.96 24.42, 39.56 25.45 C39.16 26.48, 38.65 27.49, 38.06 28.44 C37.47 29.39, 36.78 30.31, 36.02 31.15 C35.26 31.99, 34.41 32.78, 33.5 33.49 C32.6 34.19, 31.61 34.84, 30.59 35.39 C29.57 35.93, 28.48 36.41, 27.37 36.78 C26.26 37.16, 25.1 37.45, 23.94 37.64 C22.77 37.83, 21.58 37.93, 20.39 37.93 C19.21 37.93, 18.02 37.83, 16.85 37.64 C15.69 37.45, 14.53 37.16, 13.42 36.78 C12.31 36.41, 11.22 35.93, 10.2 35.39 C9.17 34.84, 8.19 34.19, 7.29 33.49 C6.38 32.78, 5.53 31.99, 4.77 31.15 C4.01 30.31, 3.32 29.39, 2.73 28.44 C2.14 27.49, 1.63 26.48, 1.23 25.45 C0.83 24.42, 0.51 23.34, 0.31 22.26 C0.1 21.17, 0 20.06, 0 18.96 C0 17.87, 0.1 16.75, 0.31 15.67 C0.51 14.59, 0.83 13.51, 1.23 12.48 C1.63 11.45, 2.14 10.43, 2.73 9.48 C3.32 8.53, 4.01 7.61, 4.77 6.77 C5.53 5.93, 6.38 5.14, 7.29 4.44 C8.19 3.73, 9.17 3.09, 10.2 2.54 C11.22 1.99, 12.31 1.52, 13.42 1.14 C14.53 0.77, 15.69 0.48, 16.85 0.29 C18.02 0.1, 19.21 0, 20.39 0 C21.58 0, 22.77 0.1, 23.94 0.29 C25.1 0.48, 26.26 0.77, 27.37 1.14 C28.48 1.52, 29.57 1.99, 30.59 2.54 C31.61 3.09, 32.6 3.73, 33.5 4.44 C34.41 5.14, 35.26 5.93, 36.02 6.77 C36.78 7.61, 37.47 8.53, 38.06 9.48 C38.65 10.43, 39.16 11.45, 39.56 12.48 C39.96 13.51, 40.27 14.59, 40.48 15.67 C40.68 16.75, 40.74 18.41, 40.79 18.96 C40.84 19.51, 40.84 18.41, 40.79 18.96" stroke="#1e1e1e" stroke-width="1" fill="none"></path></g><g stroke-linecap="round" transform="translate(10.000000000000114 61.330079875000024) rotate(0 20.39453125 18.962890625)"><path d="M40.79 18.96 C40.79 20.06, 40.68 21.17, 40.48 22.26 C40.27 23.34, 39.96 24.42, 39.56 25.45 C39.16 26.48, 38.65 27.49, 38.06 28.44 C37.47 29.39, 36.78 30.31, 36.02 31.15 C35.26 31.99, 34.41 32.78, 33.5 33.49 C32.6 34.19, 31.61 34.84, 30.59 35.39 C29.57 35.93, 28.48 36.41, 27.37 36.78 C26.26 37.16, 25.1 37.45, 23.94 37.64 C22.77 37.83, 21.58 37.93, 20.39 37.93 C19.21 37.93, 18.02 37.83, 16.85 37.64 C15.69 37.45, 14.53 37.16, 13.42 36.78 C12.31 36.41, 11.22 35.93, 10.2 35.39 C9.17 34.84, 8.19 34.19, 7.29 33.49 C6.38 32.78, 5.53 31.99, 4.77 31.15 C4.01 30.31, 3.32 29.39, 2.73 28.44 C2.14 27.49, 1.63 26.48, 1.23 25.45 C0.83 24.42, 0.51 23.34, 0.31 22.26 C0.1 21.17, 0 20.06, 0 18.96 C0 17.87, 0.1 16.75, 0.31 15.67 C0.51 14.59, 0.83 13.51, 1.23 12.48 C1.63 11.45, 2.14 10.43, 2.73 9.48 C3.32 8.53, 4.01 7.61, 4.77 6.77 C5.53 5.93, 6.38 5.14, 7.29 4.44 C8.19 3.73, 9.17 3.09, 10.2 2.54 C11.22 1.99, 12.31 1.52, 13.42 1.14 C14.53 0.77, 15.69 0.48, 16.85 0.29 C18.02 0.1, 19.21 0, 20.39 0 C21.58 0, 22.77 0.1, 23.94 0.29 C25.1 0.48, 26.26 0.77, 27.37 1.14 C28.48 1.52, 29.57 1.99, 30.59 2.54 C31.61 3.09, 32.6 3.73, 33.5 4.44 C34.41 5.14, 35.26 5.93, 36.02 6.77 C36.78 7.61, 37.47 8.53, 38.06 9.48 C38.65 10.43, 39.16 11.45, 39.56 12.48 C39.96 13.51, 40.27 14.59, 40.48 15.67 C40.68 16.75, 40.74 18.41, 40.79 18.96 C40.84 19.51, 40.84 18.41, 40.79 18.96" stroke="#1e1e1e" stroke-width="1" fill="none"></path></g><g stroke-linecap="round" transform="translate(315.5820309999999 112.42968662499999) rotate(0 20.39453125 18.962890625)"><path d="M40.79 18.96 C40.79 20.06, 40.68 21.17, 40.48 22.26 C40.27 23.34, 39.96 24.42, 39.56 25.45 C39.16 26.48, 38.65 27.49, 38.06 28.44 C37.47 29.39, 36.78 30.31, 36.02 31.15 C35.26 31.99, 34.41 32.78, 33.5 33.49 C32.6 34.19, 31.61 34.84, 30.59 35.39 C29.57 35.93, 28.48 36.41, 27.37 36.78 C26.26 37.16, 25.1 37.45, 23.94 37.64 C22.77 37.83, 21.58 37.93, 20.39 37.93 C19.21 37.93, 18.02 37.83, 16.85 37.64 C15.69 37.45, 14.53 37.16, 13.42 36.78 C12.31 36.41, 11.22 35.93, 10.2 35.39 C9.17 34.84, 8.19 34.19, 7.29 33.49 C6.38 32.78, 5.53 31.99, 4.77 31.15 C4.01 30.31, 3.32 29.39, 2.73 28.44 C2.14 27.49, 1.63 26.48, 1.23 25.45 C0.83 24.42, 0.51 23.34, 0.31 22.26 C0.1 21.17, 0 20.06, 0 18.96 C0 17.87, 0.1 16.75, 0.31 15.67 C0.51 14.59, 0.83 13.51, 1.23 12.48 C1.63 11.45, 2.14 10.43, 2.73 9.48 C3.32 8.53, 4.01 7.61, 4.77 6.77 C5.53 5.93, 6.38 5.14, 7.29 4.44 C8.19 3.73, 9.17 3.09, 10.2 2.54 C11.22 1.99, 12.31 1.52, 13.42 1.14 C14.53 0.77, 15.69 0.48, 16.85 0.29 C18.02 0.1, 19.21 0, 20.39 0 C21.58 0, 22.77 0.1, 23.94 0.29 C25.1 0.48, 26.26 0.77, 27.37 1.14 C28.48 1.52, 29.57 1.99, 30.59 2.54 C31.61 3.09, 32.6 3.73, 33.5 4.44 C34.41 5.14, 35.26 5.93, 36.02 6.77 C36.78 7.61, 37.47 8.53, 38.06 9.48 C38.65 10.43, 39.16 11.45, 39.56 12.48 C39.96 13.51, 40.27 14.59, 40.48 15.67 C40.68 16.75, 40.74 18.41, 40.79 18.96 C40.84 19.51, 40.84 18.41, 40.79 18.96" stroke="#1e1e1e" stroke-width="1" fill="none"></path></g><g stroke-linecap="round" transform="translate(315.58203100000014 61.09960912499997) rotate(0 20.39453125 18.962890625)"><path d="M40.79 18.96 C40.79 20.06, 40.68 21.17, 40.48 22.26 C40.27 23.34, 39.96 24.42, 39.56 25.45 C39.16 26.48, 38.65 27.49, 38.06 28.44 C37.47 29.39, 36.78 30.31, 36.02 31.15 C35.26 31.99, 34.41 32.78, 33.5 33.49 C32.6 34.19, 31.61 34.84, 30.59 35.39 C29.57 35.93, 28.48 36.41, 27.37 36.78 C26.26 37.16, 25.1 37.45, 23.94 37.64 C22.77 37.83, 21.58 37.93, 20.39 37.93 C19.21 37.93, 18.02 37.83, 16.85 37.64 C15.69 37.45, 14.53 37.16, 13.42 36.78 C12.31 36.41, 11.22 35.93, 10.2 35.39 C9.17 34.84, 8.19 34.19, 7.29 33.49 C6.38 32.78, 5.53 31.99, 4.77 31.15 C4.01 30.31, 3.32 29.39, 2.73 28.44 C2.14 27.49, 1.63 26.48, 1.23 25.45 C0.83 24.42, 0.51 23.34, 0.31 22.26 C0.1 21.17, 0 20.06, 0 18.96 C0 17.87, 0.1 16.75, 0.31 15.67 C0.51 14.59, 0.83 13.51, 1.23 12.48 C1.63 11.45, 2.14 10.43, 2.73 9.48 C3.32 8.53, 4.01 7.61, 4.77 6.77 C5.53 5.93, 6.38 5.14, 7.29 4.44 C8.19 3.73, 9.17 3.09, 10.2 2.54 C11.22 1.99, 12.31 1.52, 13.42 1.14 C14.53 0.77, 15.69 0.48, 16.85 0.29 C18.02 0.1, 19.21 0, 20.39 0 C21.58 0, 22.77 0.1, 23.94 0.29 C25.1 0.48, 26.26 0.77, 27.37 1.14 C28.48 1.52, 29.57 1.99, 30.59 2.54 C31.61 3.09, 32.6 3.73, 33.5 4.44 C34.41 5.14, 35.26 5.93, 36.02 6.77 C36.78 7.61, 37.47 8.53, 38.06 9.48 C38.65 10.43, 39.16 11.45, 39.56 12.48 C39.96 13.51, 40.27 14.59, 40.48 15.67 C40.68 16.75, 40.74 18.41, 40.79 18.96 C40.84 19.51, 40.84 18.41, 40.79 18.96" stroke="#1e1e1e" stroke-width="1" fill="none"></path></g><g stroke-linecap="round"><g transform="translate(43.89414836455262 66.20186265289078) rotate(0 18.56392807597004 -14.432019292711232)"><path d="M0 0 C14.68 -11.41, 29.36 -22.83, 37.13 -28.86 M0 0 C13.96 -10.85, 27.92 -21.71, 37.13 -28.86" stroke="#1e1e1e" stroke-width="1" fill="none"></path></g></g><mask></mask><g stroke-linecap="round"><g transform="translate(51.251096275409964 81.39613760241792) rotate(0 13.939416515545759 -0.03908445067256139)"><path d="M0 0 C7.93 -0.02, 15.85 -0.04, 27.88 -0.08 M0 0 C7.4 -0.02, 14.81 -0.04, 27.88 -0.08" stroke="#1e1e1e" stroke-width="1" fill="none"></path></g></g><mask></mask><g stroke-linecap="round"><g transform="translate(51.70320829940613 131.45592455844348) rotate(0 13.728149214612984 -0.012676038055985828)"><path d="M0 0 C8.62 -0.01, 17.24 -0.02, 27.46 -0.03 M0 0 C8.85 -0.01, 17.7 -0.02, 27.46 -0.03" stroke="#1e1e1e" stroke-width="1" fill="none"></path></g></g><mask></mask><g stroke-linecap="round"><g transform="translate(45.25321760192787 93.2228811086357) rotate(0 20.445393047771148 37.67107242932653)"><path d="M0 0 C15.47 28.51, 30.95 57.02, 40.89 75.34 M0 0 C15.76 29.04, 31.53 58.09, 40.89 75.34" stroke="#1e1e1e" stroke-width="1" fill="none"></path></g></g><mask></mask><g stroke-linecap="round"><g transform="translate(50.70391396599405 127.73128204299837) rotate(0 17.09152464546304 -16.83272220182039)"><path d="M0 0 C7.8 -7.68, 15.59 -15.36, 34.18 -33.67 M0 0 C9.06 -8.92, 18.12 -17.84, 34.18 -33.67" stroke="#1e1e1e" stroke-width="1" fill="none"></path></g></g><mask></mask><g stroke-linecap="round"><g transform="translate(47.95532638085842 120.84396803258926) rotate(0 19.139761128006484 -38.66825408972932)"><path d="M0 0 C10.43 -21.08, 20.86 -42.15, 38.28 -77.34 M0 0 C11.02 -22.27, 22.04 -44.54, 38.28 -77.34" stroke="#1e1e1e" stroke-width="1" fill="none"></path></g></g><mask></mask><g stroke-linecap="round"><g transform="translate(47.306735766994734 143.84252641213322) rotate(0 16.80506414202239 15.647262714151168)"><path d="M0 0 C9.54 8.88, 19.07 17.76, 33.61 31.29 M0 0 C11.61 10.81, 23.23 21.63, 33.61 31.29" stroke="#1e1e1e" stroke-width="1" fill="none"></path></g></g><mask></mask><g stroke-linecap="round"><g transform="translate(49.773174246882945 87.06076893518258) rotate(0 16.283493816539078 17.45573228913932)"><path d="M0 0 C13 13.93, 25.99 27.87, 32.57 34.91 M0 0 C7.82 8.38, 15.64 16.76, 32.57 34.91" stroke="#1e1e1e" stroke-width="1" fill="none"></path></g></g><mask></mask><g stroke-linecap="round"><g transform="translate(120.22964531721158 31.743621089606904) rotate(0 20.133093703006125 9.910814381646901)"><path d="M0 0 C9.06 4.46, 18.11 8.92, 40.27 19.82 M0 0 C13.36 6.58, 26.72 13.15, 40.27 19.82" stroke="#1e1e1e" stroke-width="1" fill="none"></path></g></g><mask></mask><g stroke-linecap="round"><g transform="translate(120.7134541902314 83.42603675254247) rotate(0 19.62344332328746 10.34478886431279)"><path d="M0 0 C9.38 4.94, 18.76 9.89, 39.25 20.69 M0 0 C11.21 5.91, 22.42 11.82, 39.25 20.69" stroke="#1e1e1e" stroke-width="1" fill="none"></path></g></g><mask></mask><g stroke-linecap="round"><g transform="translate(120.08429501201243 135.0440829946042) rotate(0 19.870424937182065 10.385279306475354)"><path d="M0 0 C11.69 6.11, 23.39 12.22, 39.74 20.77 M0 0 C12.65 6.61, 25.29 13.22, 39.74 20.77" stroke="#1e1e1e" stroke-width="1" fill="none"></path></g></g><mask></mask><g stroke-linecap="round"><g transform="translate(118.21550537373827 174.14331509316094) rotate(0 22.328921527978196 -24.65348819469807)"><path d="M0 0 C9.89 -10.92, 19.79 -21.85, 44.66 -49.31 M0 0 C15.4 -17, 30.8 -34, 44.66 -49.31" stroke="#1e1e1e" stroke-width="1" fill="none"></path></g></g><mask></mask><g stroke-linecap="round"><g transform="translate(119.69807848676913 77.07422841534196) rotate(0 19.257877222414493 -6.555298764479204)"><path d="M0 0 C12.82 -4.36, 25.64 -8.73, 38.52 -13.11 M0 0 C8.7 -2.96, 17.41 -5.93, 38.52 -13.11" stroke="#1e1e1e" stroke-width="1" fill="none"></path></g></g><mask></mask><g stroke-linecap="round"><g transform="translate(118.03277927577363 37.56593902929632) rotate(0 23.180259029858604 30.456080021539123)"><path d="M0 0 C10.41 13.67, 20.82 27.35, 46.36 60.91 M0 0 C14.59 19.16, 29.17 38.33, 46.36 60.91" stroke="#1e1e1e" stroke-width="1" fill="none"></path></g></g><mask></mask><g stroke-linecap="round"><g transform="translate(115.33406823710101 41.40733995241533) rotate(0 25.082316306242404 54.03637248933137)"><path d="M0 0 C14.05 30.28, 28.11 60.56, 50.16 108.07 M0 0 C15.18 32.71, 30.37 65.43, 50.16 108.07" stroke="#1e1e1e" stroke-width="1" fill="none"></path></g></g><mask></mask><g stroke-linecap="round"><g transform="translate(115.85777228803357 120.30994576481237) rotate(0 23.054036612064806 -23.67384312155201)"><path d="M0 0 C12.64 -12.98, 25.27 -25.95, 46.11 -47.35 M0 0 C16.98 -17.44, 33.97 -34.88, 46.11 -47.35" stroke="#1e1e1e" stroke-width="1" fill="none"></path></g></g><mask></mask><g stroke-linecap="round"><g transform="translate(119.24800001971624 125.41480882720225) rotate(0 19.850076190975955 -4.277640988704405)"><path d="M0 0 C10.88 -2.34, 21.76 -4.69, 39.7 -8.56 M0 0 C8.84 -1.9, 17.67 -3.81, 39.7 -8.56" stroke="#1e1e1e" stroke-width="1" fill="none"></path></g></g><mask></mask><g stroke-linecap="round"><g transform="translate(112.68878782482892 168.09686496739533) rotate(0 27.286127516082587 -45.437836263739456)"><path d="M0 0 C13.36 -22.25, 26.73 -44.51, 54.57 -90.88 M0 0 C13.97 -23.27, 27.95 -46.54, 54.57 -90.88" stroke="#1e1e1e" stroke-width="1" fill="none"></path></g></g><mask></mask><g stroke-linecap="round"><g transform="translate(119.82551002199438 178.98333520752078) rotate(0 19.3286904001869 -4.8396964979637005)"><path d="M0 0 C13.57 -3.4, 27.14 -6.79, 38.66 -9.68 M0 0 C14.93 -3.74, 29.87 -7.48, 38.66 -9.68" stroke="#1e1e1e" stroke-width="1" fill="none"></path></g></g><mask></mask><g stroke-linecap="round"><g transform="translate(198.64322473216538 165.8281733414296) rotate(180.30989533736377 19.03276651740657 7.777565877307666)"><path d="M0 0 C13.7 5.6, 27.41 11.2, 38.07 15.56 M0 0 C7.77 3.18, 15.55 6.35, 38.07 15.56" stroke="#1e1e1e" stroke-width="1" fill="none"></path></g></g><mask></mask><g stroke-linecap="round"><g transform="translate(199.35915460034374 112.7552350832579) rotate(180.30989533736377 18.731531548419753 8.864351301691272)"><path d="M0 0 C12.95 6.13, 25.9 12.26, 37.46 17.73 M0 0 C8.29 3.92, 16.58 7.84, 37.46 17.73" stroke="#1e1e1e" stroke-width="1" fill="none"></path></g></g><mask></mask><g stroke-linecap="round"><g transform="translate(198.79504121355689 64.31534727630373) rotate(180.30989533736377 18.97028409625696 7.942110314560608)"><path d="M0 0 C11.04 4.62, 22.08 9.24, 37.94 15.88 M0 0 C8.19 3.43, 16.39 6.86, 37.94 15.88" stroke="#1e1e1e" stroke-width="1" fill="none"></path></g></g><mask></mask><g stroke-linecap="round"><g transform="translate(194.91854595593117 100.41444833525838) rotate(180.30989533736377 23.56060990865157 -29.12983586745807)"><path d="M0 0 C18.44 -22.8, 36.87 -45.59, 47.12 -58.26 M0 0 C13.25 -16.39, 26.51 -32.77, 47.12 -58.26" stroke="#1e1e1e" stroke-width="1" fill="none"></path></g></g><mask></mask><g stroke-linecap="round"><g transform="translate(198.34851002781824 159.32715100764563) rotate(180.30989533736377 20.45551799404504 -8.834241991430417)"><path d="M0 0 C10.54 -4.55, 21.08 -9.1, 40.91 -17.67 M0 0 C15.18 -6.55, 30.35 -13.11, 40.91 -17.67" stroke="#1e1e1e" stroke-width="1" fill="none"></path></g></g><mask></mask><g stroke-linecap="round"><g transform="translate(194.13404012581617 124.23322282194329) rotate(180.30989533736377 23.27059857355141 23.492036634096422)"><path d="M0 0 C10.22 10.32, 20.44 20.63, 46.54 46.98 M0 0 C16.14 16.3, 32.29 32.59, 46.54 46.98" stroke="#1e1e1e" stroke-width="1" fill="none"></path></g></g><mask></mask><g stroke-linecap="round"><g transform="translate(194.08489600746856 73.63735649498574) rotate(180.30989533736377 26.45135559585441 46.405519441985746)"><path d="M0 0 C17.38 30.49, 34.75 60.97, 52.9 92.81 M0 0 C17.22 30.21, 34.43 60.41, 52.9 92.81" stroke="#1e1e1e" stroke-width="1" fill="none"></path></g></g><mask></mask><g stroke-linecap="round"><g transform="translate(196.63081767469492 155.4233236290138) rotate(180.30989533736377 23.55919717881889 -30.22925382661097)"><path d="M0 0 C12.28 -15.76, 24.56 -31.51, 47.12 -60.46 M0 0 C15.31 -19.65, 30.62 -39.29, 47.12 -60.46" stroke="#1e1e1e" stroke-width="1" fill="none"></path></g></g><mask></mask><g stroke-linecap="round"><g transform="translate(197.66522643338288 105.56806832379505) rotate(180.30989533736377 21.248098690395636 -7.053863287222754)"><path d="M0 0 C13.61 -4.52, 27.22 -9.04, 42.5 -14.11 M0 0 C9.02 -2.99, 18.03 -5.99, 42.5 -14.11" stroke="#1e1e1e" stroke-width="1" fill="none"></path></g></g><mask></mask><g stroke-linecap="round"><g transform="translate(192.28357163900563 150.02621349079266) rotate(180.30989533736377 27.862856067665405 -51.94679468009821)"><path d="M0 0 C19.11 -35.63, 38.22 -71.26, 55.73 -103.89 M0 0 C19.46 -36.28, 38.92 -72.56, 55.73 -103.89" stroke="#1e1e1e" stroke-width="1" fill="none"></path></g></g><mask></mask><g stroke-linecap="round"><g transform="translate(195.84066436944607 51.202633699220655) rotate(180.30989533736377 21.30382334177534 -7.279649491820948)"><path d="M0 0 C12.71 -4.34, 25.42 -8.69, 42.61 -14.56 M0 0 C14.51 -4.96, 29.02 -9.92, 42.61 -14.56" stroke="#1e1e1e" stroke-width="1" fill="none"></path></g></g><mask></mask><g stroke-linecap="round"><g transform="translate(276.44187872870583 34.87549172013502) rotate(0 22.153712240236615 16.05529282039012)"><path d="M0 0 C17.44 12.64, 34.88 25.28, 44.31 32.11 M0 0 C12.39 8.98, 24.78 17.96, 44.31 32.11" stroke="#1e1e1e" stroke-width="1" fill="none"></path></g></g><mask></mask><g stroke-linecap="round"><g transform="translate(274.73731043421793 39.68839043398316) rotate(0 24.076790676803768 38.59399912048062)"><path d="M0 0 C13.31 21.33, 26.61 42.66, 48.15 77.19 M0 0 C14.27 22.88, 28.54 45.75, 48.15 77.19" stroke="#1e1e1e" stroke-width="1" fill="none"></path></g></g><mask></mask><g stroke-linecap="round"><g transform="translate(277.02835616632086 75.73783422029487) rotate(0 19.489023624491693 0.36134577607901974)"><path d="M0 0 C13.17 0.24, 26.34 0.49, 38.98 0.72 M0 0 C7.92 0.15, 15.83 0.29, 38.98 0.72" stroke="#1e1e1e" stroke-width="1" fill="none"></path></g></g><mask></mask><g stroke-linecap="round"><g transform="translate(277.05862596955257 85.90659624346068) rotate(0 21.164268047098886 17.359732153408316)"><path d="M0 0 C13.39 10.98, 26.78 21.97, 42.33 34.72 M0 0 C10.25 8.41, 20.51 16.82, 42.33 34.72" stroke="#1e1e1e" stroke-width="1" fill="none"></path></g></g><mask></mask><g stroke-linecap="round"><g transform="translate(276.5459311773149 125.04734368481479) rotate(0 20.72062624348351 -18.143909243380847)"><path d="M0 0 C16.57 -14.51, 33.13 -29.01, 41.44 -36.29 M0 0 C13.79 -12.07, 27.58 -24.15, 41.44 -36.29" stroke="#1e1e1e" stroke-width="1" fill="none"></path></g></g><mask></mask><g stroke-linecap="round"><g transform="translate(277.66213017148556 130.81184933776103) rotate(0 19.183487798121206 -0.1466193594037577)"><path d="M0 0 C8.79 -0.07, 17.57 -0.13, 38.37 -0.29 M0 0 C8.33 -0.06, 16.66 -0.13, 38.37 -0.29" stroke="#1e1e1e" stroke-width="1" fill="none"></path></g></g><mask></mask><g stroke-linecap="round"><g transform="translate(275.577297473899 174.28685422936132) rotate(0 21.585207498290316 -16.67393192393905)"><path d="M0 0 C8.7 -6.72, 17.39 -13.43, 43.17 -33.35 M0 0 C13.31 -10.28, 26.62 -20.56, 43.17 -33.35" stroke="#1e1e1e" stroke-width="1" fill="none"></path></g></g><mask></mask><g stroke-linecap="round"><g transform="translate(271.3641192365798 169.10315042592413) rotate(0 26.82945090819092 -36.7201091141651)"><path d="M0 0 C14.67 -20.07, 29.33 -40.15, 53.66 -73.44 M0 0 C12.7 -17.38, 25.39 -34.76, 53.66 -73.44" stroke="#1e1e1e" stroke-width="1" fill="none"></path></g></g><mask></mask></svg>